<svg width="56" height="56" viewBox="0 0 56 56" fill="none" xmlns="http://www.w3.org/2000/svg">
<path d="M45.1033 13.2535L30.4733 5.36682C28.9333 4.52682 27.0667 4.52682 25.5267 5.36682L10.8967 13.2535C9.82335 13.8368 9.17001 14.9568 9.17001 16.2402C9.17001 17.5001 9.82335 18.6435 10.8967 19.2268L25.5267 27.1135C26.2967 27.5335 27.16 27.7435 28 27.7435C28.84 27.7435 29.7033 27.5335 30.4733 27.1135L45.1033 19.2268C46.1767 18.6435 46.83 17.5235 46.83 16.2402C46.83 14.9568 46.1767 13.8368 45.1033 13.2535Z" fill="black"/>
<path d="M23.1233 29.8435L9.49666 23.0302C8.44666 22.5168 7.23332 22.5635 6.25332 23.1702C5.24999 23.8002 4.66666 24.8502 4.66666 26.0168V38.8735C4.66666 41.0902 5.90332 43.0968 7.88666 44.1002L21.49 50.9135C21.9567 51.1468 22.47 51.2635 22.9833 51.2635C23.59 51.2635 24.1967 51.1002 24.7333 50.7735C25.7367 50.1668 26.32 49.0935 26.32 47.9268V35.0702C26.3433 32.8302 25.1067 30.8235 23.1233 29.8435Z" fill="black"/>
<path d="M49.7467 23.1698C48.7433 22.5632 47.53 22.4932 46.5033 23.0298L32.9 29.8432C30.9167 30.8465 29.68 32.8298 29.68 35.0698V47.9265C29.68 49.0932 30.2633 50.1665 31.2667 50.7732C31.8033 51.0998 32.41 51.2632 33.0167 51.2632C33.53 51.2632 34.0433 51.1465 34.51 50.9132L48.1133 44.0998C50.0967 43.0965 51.3333 41.1132 51.3333 38.8732V26.0165C51.3333 24.8498 50.75 23.7998 49.7467 23.1698Z" fill="black"/>
</svg>
