<?xml version="1.0" standalone="no"?>
<!DOCTYPE svg PUBLIC "-//W3C//DTD SVG 20010904//EN"
 "http://www.w3.org/TR/2001/REC-SVG-20010904/DTD/svg10.dtd">
<svg version="1.0" xmlns="http://www.w3.org/2000/svg"
 width="83.000000pt" height="29.000000pt" viewBox="0 0 83.000000 29.000000"
 preserveAspectRatio="xMidYMid meet">

<g transform="translate(0.000000,29.000000) scale(0.100000,-0.100000)"
fill="#000000" stroke="none">
<path d="M50 278 c0 -7 -7 -60 -15 -118 -19 -142 -19 -150 5 -150 16 0 20 7
20 30 0 23 4 30 20 30 16 0 20 -7 20 -30 0 -25 4 -30 25 -30 29 0 29 -1 15
125 -19 161 -16 155 -55 155 -21 0 -35 -5 -35 -12z m36 -166 c-13 -13 -17 9
-9 55 l8 48 3 -49 c2 -26 1 -51 -2 -54z"/>
<path d="M160 150 l0 -140 39 0 c63 0 71 15 71 136 0 130 -6 144 -65 144 l-45
0 0 -140z m60 -1 c0 -64 -4 -98 -10 -94 -11 7 -14 178 -3 188 12 13 13 7 13
-94z"/>
<path d="M276 248 c3 -24 11 -86 17 -138 12 -92 13 -95 37 -95 24 0 25 3 28
63 3 70 22 77 22 7 0 -24 3 -50 6 -59 6 -16 44 -23 44 -8 0 30 30 256 35 260
3 3 5 -56 5 -132 l0 -136 120 1 120 1 1 61 2 62 11 -60 c10 -50 15 -61 34 -63
26 -4 27 3 7 97 -13 61 -13 76 0 118 19 63 19 63 -9 63 -21 0 -26 -7 -34 -42
l-10 -43 -1 43 -1 42 -145 0 -145 0 -1 -67 c-1 -50 -3 -61 -9 -43 -4 14 -8 44
-9 68 -1 41 -2 43 -28 40 -27 -3 -28 -6 -33 -68 -4 -58 -6 -61 -12 -31 -5 18
-8 49 -8 67 0 30 -3 34 -25 34 -23 0 -24 -2 -19 -42z m284 -93 c0 -95 0 -95
-25 -95 -22 0 -25 4 -25 35 0 28 4 35 20 35 15 0 20 7 20 25 0 18 -5 25 -20
25 -15 0 -20 7 -20 28 0 33 7 42 32 42 16 0 18 -10 18 -95z m100 0 c0 -95 0
-95 -25 -95 -22 0 -25 4 -25 34 0 25 5 35 20 39 12 3 20 14 20 26 0 14 -6 21
-20 21 -16 0 -20 7 -20 35 0 31 3 35 25 35 25 0 25 0 25 -95z"/>
</g>
</svg>
