<svg width="24" height="25" viewBox="0 0 24 25" fill="none" xmlns="http://www.w3.org/2000/svg">
<path fill-rule="evenodd" clip-rule="evenodd" d="M12 2.75C6.61522 2.75 2.25 7.11522 2.25 12.5C2.25 17.8848 6.61522 22.25 12 22.25C17.3848 22.25 21.75 17.8848 21.75 12.5C21.75 7.11522 17.3848 2.75 12 2.75ZM16.2803 13.0303C16.421 12.8897 16.5 12.6989 16.5 12.5C16.5 12.3011 16.421 12.1103 16.2803 11.9697L13.2803 8.96967C12.9874 8.67678 12.5126 8.67678 12.2197 8.96967C11.9268 9.26256 11.9268 9.73744 12.2197 10.0303L13.9393 11.75L8.25 11.75C7.83579 11.75 7.5 12.0858 7.5 12.5C7.5 12.9142 7.83579 13.25 8.25 13.25L13.9393 13.25L12.2197 14.9697C11.9268 15.2626 11.9268 15.7374 12.2197 16.0303C12.5126 16.3232 12.9874 16.3232 13.2803 16.0303L16.2803 13.0303Z" fill="#0F172A"/>
</svg>
