<svg width="56" height="56" viewBox="0 0 56 56" fill="none" xmlns="http://www.w3.org/2000/svg">
<path opacity="0.4" d="M44.8934 13.0198H43.9601L36.0734 5.13314C35.4434 4.50314 34.4167 4.50314 33.7634 5.13314C33.1334 5.76314 33.1334 6.78981 33.7634 7.44314L39.3401 13.0198H16.6601L22.2367 7.44314C22.8667 6.81314 22.8667 5.78648 22.2367 5.13314C21.6067 4.50314 20.5801 4.50314 19.9267 5.13314L12.0634 13.0198H11.1301C9.03008 13.0198 4.66675 13.0198 4.66675 18.9931C4.66675 21.2565 5.13341 22.7498 6.11341 23.7298C6.67341 24.3131 7.35008 24.6165 8.07341 24.7798C8.75008 24.9431 9.47341 24.9665 10.1734 24.9665H45.8267C46.5501 24.9665 47.2267 24.9198 47.8801 24.7798C49.8401 24.3131 51.3334 22.9131 51.3334 18.9931C51.3334 13.0198 46.9701 13.0198 44.8934 13.0198Z" fill="#060606"/>
<path d="M45.8732 24.9668H10.1732C9.49658 24.9668 8.74991 24.9435 8.07324 24.7568L11.0132 42.7002C11.6899 46.7135 13.4399 51.3335 21.2099 51.3335H34.2999C42.1632 51.3335 43.5632 47.3902 44.4032 42.9802L47.9266 24.7568C47.2732 24.9202 46.5732 24.9668 45.8732 24.9668ZM34.7199 35.1168L27.1366 42.1168C26.8099 42.4202 26.3666 42.5835 25.9466 42.5835C25.5032 42.5835 25.0599 42.4202 24.7099 42.0702L21.2099 38.5702C20.5332 37.8935 20.5332 36.7735 21.2099 36.0968C21.8866 35.4202 23.0066 35.4202 23.6832 36.0968L25.9932 38.4068L32.3399 32.5502C33.0399 31.8968 34.1599 31.9435 34.8132 32.6435C35.4899 33.3668 35.4432 34.4635 34.7199 35.1168Z" fill="#060606"/>
</svg>
