<svg width="56" height="56" viewBox="0 0 56 56" fill="none" xmlns="http://www.w3.org/2000/svg">
<path d="M36.2133 6.76675C34.8133 5.36675 32.7833 4.66675 30.1699 4.66675H17.1499C11.8999 4.66675 9.00659 7.56008 9.00659 12.8101C9.00659 15.4234 9.70659 17.4534 11.1066 18.8534C12.5066 20.2534 14.5366 20.9534 17.1499 20.9534H30.1699C35.4199 20.9534 38.3133 18.0601 38.3133 12.8101C38.3133 10.1967 37.6133 8.16675 36.2133 6.76675Z" fill="#110F0E"/>
<path opacity="0.4" d="M24.7334 35.0466H22.5634C20.3468 35.0466 17.6868 35.8866 17.6868 39.9233V46.4333C17.6868 50.47 20.3468 51.31 22.5634 51.31H24.7334C26.9501 51.31 29.6101 50.47 29.6101 46.4333V39.9233C29.6334 35.91 26.9734 35.0466 24.7334 35.0466Z" fill="#110F0E"/>
<path opacity="0.4" d="M38.85 11.1768H38.1967C38.2667 11.6901 38.3134 12.2268 38.3134 12.8101C38.3134 13.3934 38.2667 13.9301 38.1967 14.4434H38.85C43.7267 14.4434 43.7267 15.0968 43.7267 19.3201V23.6601C43.7267 27.8834 43.7267 28.5368 38.85 28.5368H30.17C23.1934 28.5368 22.19 31.8501 22.05 35.0701C22.2134 35.0701 22.4 35.0468 22.5634 35.0468H24.7334C24.9201 35.0468 25.1067 35.0701 25.3167 35.0701C25.4334 32.7134 26.11 31.7801 30.17 31.7801H38.85C46.4334 31.7801 46.9934 28.7001 46.9934 23.6368V19.3201C46.9934 14.2568 46.4334 11.1768 38.85 11.1768Z" fill="#110F0E"/>
</svg>
