<?xml version="1.0" standalone="no"?>
<!DOCTYPE svg PUBLIC "-//W3C//DTD SVG 20010904//EN"
 "http://www.w3.org/TR/2001/REC-SVG-20010904/DTD/svg10.dtd">
<svg version="1.0" xmlns="http://www.w3.org/2000/svg"
 width="96.000000pt" height="32.000000pt" viewBox="0 0 96.000000 32.000000"
 preserveAspectRatio="xMidYMid meet">

<g transform="translate(0.000000,32.000000) scale(0.100000,-0.100000)"
fill="#000000" stroke="none">
<path d="M0 250 l0 -60 35 0 c35 0 67 31 45 45 -6 3 -7 18 -4 32 8 29 -7 43
-48 43 -27 0 -28 -1 -28 -60z m60 25 c0 -8 -9 -15 -20 -15 -11 0 -20 7 -20 15
0 8 9 15 20 15 11 0 20 -7 20 -15z m3 -42 c9 -9 -12 -33 -29 -33 -8 0 -14 9
-14 20 0 19 28 28 43 13z"/>
<path d="M130 261 c0 -56 15 -74 57 -69 27 3 28 6 31 61 2 35 -1 57 -8 57 -5
0 -10 -22 -10 -49 0 -52 -8 -65 -34 -55 -12 4 -16 20 -16 55 0 27 -4 49 -10
49 -5 0 -10 -22 -10 -49z"/>
<path d="M280 295 c-17 -20 -6 -43 26 -55 32 -13 26 -36 -10 -32 -14 1 -26 -2
-26 -8 0 -7 15 -10 38 -8 29 2 38 8 40 25 2 16 -5 26 -27 38 -37 19 -40 35 -6
35 14 0 25 5 25 10 0 16 -46 12 -60 -5z"/>
<path d="M400 250 c0 -33 4 -60 10 -60 6 0 10 27 10 60 0 33 -4 60 -10 60 -6
0 -10 -27 -10 -60z"/>
<path d="M480 252 c0 -35 4 -62 10 -62 6 0 10 17 10 37 l0 37 40 -39 40 -39 0
62 c0 35 -4 62 -10 62 -5 0 -10 -17 -10 -37 l0 -37 -40 39 -40 39 0 -62z"/>
<path d="M640 250 l0 -60 36 0 c21 0 33 4 29 10 -3 6 -17 10 -31 10 -15 0 -24
6 -24 15 0 9 9 15 25 15 14 0 25 5 25 10 0 6 -11 10 -25 10 -16 0 -25 6 -25
15 0 10 10 15 30 15 17 0 30 5 30 10 0 6 -16 10 -35 10 l-35 0 0 -60z"/>
<path d="M762 298 c-20 -20 -14 -37 19 -53 37 -20 33 -41 -7 -37 -22 3 -26 0
-18 -8 6 -6 24 -10 40 -8 40 4 41 47 2 66 -37 17 -35 32 3 32 17 0 28 4 24 10
-9 14 -48 13 -63 -2z"/>
<path d="M881 296 c-15 -18 -5 -41 25 -55 33 -15 25 -37 -12 -33 -22 3 -26 0
-18 -8 6 -6 24 -10 40 -8 40 4 41 47 2 66 -37 17 -35 32 3 32 17 0 28 4 24 10
-9 15 -51 12 -64 -4z"/>
<path d="M70 75 c0 -42 3 -55 15 -55 12 0 15 13 15 55 0 42 -3 55 -15 55 -12
0 -15 -13 -15 -55z"/>
<path d="M240 93 l0 -37 -33 32 c-18 18 -36 32 -40 32 -4 0 -6 -24 -6 -52 2
-50 2 -51 8 -15 l6 38 43 -36 42 -37 0 56 c0 31 -4 56 -10 56 -5 0 -10 -17
-10 -37z"/>
<path d="M310 115 c-15 -18 -7 -31 31 -50 34 -18 29 -39 -7 -32 -13 2 -24 0
-24 -5 0 -5 15 -8 33 -6 46 4 50 41 7 63 -35 18 -30 40 6 31 14 -4 24 -2 24 4
0 15 -56 12 -70 -5z"/>
<path d="M440 75 c0 -30 5 -55 10 -55 6 0 10 25 10 55 0 30 -4 55 -10 55 -5 0
-10 -25 -10 -55z"/>
<path d="M520 74 l0 -55 42 3 c36 3 44 7 52 30 7 18 6 35 -2 53 -10 21 -18 25
-52 25 l-40 0 0 -56z m61 36 c36 -20 18 -80 -23 -80 -15 0 -18 8 -18 45 0 46
7 53 41 35z"/>
<path d="M660 75 l0 -55 38 1 c30 2 32 3 10 6 -38 6 -40 43 -2 43 14 0 23 4
19 10 -3 6 -15 10 -26 10 -30 0 -23 28 9 33 22 3 20 4 -10 6 l-38 1 0 -55z"/>
<path d="M790 76 c0 -31 5 -56 10 -56 6 0 10 9 10 20 0 25 12 25 35 0 10 -11
23 -20 28 -20 6 0 2 9 -9 21 -14 16 -15 22 -5 28 7 5 11 19 9 32 -2 20 -10 25
-40 27 l-38 3 0 -55z m58 21 c2 -12 -3 -17 -17 -17 -15 0 -21 6 -21 21 0 25
33 22 38 -4z"/>
</g>
</svg>
