<?xml version="1.0" standalone="no"?>
<!DOCTYPE svg PUBLIC "-//W3C//DTD SVG 20010904//EN"
 "http://www.w3.org/TR/2001/REC-SVG-20010904/DTD/svg10.dtd">
<svg version="1.0" xmlns="http://www.w3.org/2000/svg"
 width="106.000000pt" height="34.000000pt" viewBox="0 0 106.000000 34.000000"
 preserveAspectRatio="xMidYMid meet">

<g transform="translate(0.000000,34.000000) scale(0.100000,-0.100000)"
fill="#000000" stroke="none">
<path d="M946 284 c-3 -26 -6 -60 -6 -77 0 -28 2 -29 31 -23 17 3 38 6 45 6 8
0 14 5 14 10 0 6 -16 10 -36 10 -28 0 -35 3 -32 18 2 12 14 18 41 20 47 4 49
22 1 22 -28 0 -35 3 -32 18 2 11 14 18 33 20 53 6 52 22 -2 22 l-50 0 -7 -46z"/>
<path d="M780 286 c0 -13 -3 -44 -6 -70 l-7 -46 41 0 c22 0 44 5 47 10 4 6 -7
10 -26 10 l-32 0 6 60 c6 49 4 60 -8 60 -9 0 -15 -9 -15 -24z"/>
<path d="M607 293 c-13 -12 -7 -23 12 -23 17 0 19 -6 14 -62 -7 -78 11 -69 24
12 7 46 12 56 31 58 12 2 22 8 22 13 0 10 -93 13 -103 2z"/>
<path d="M432 268 c-23 -23 -14 -48 23 -64 20 -8 35 -21 35 -30 0 -14 -8 -16
-41 -11 -28 4 -39 2 -36 -6 5 -17 75 -21 93 -6 25 21 12 52 -29 72 -46 21 -40
42 10 34 24 -4 33 -2 30 6 -5 17 -69 21 -85 5z"/>
<path d="M316 254 c-3 -9 -6 -29 -6 -45 0 -43 -17 -69 -45 -69 -29 0 -34 12
-27 73 3 29 1 47 -5 47 -23 0 -32 -107 -11 -128 21 -21 76 -15 92 11 18 28 32
127 18 127 -5 0 -13 -7 -16 -16z"/>
<path d="M48 243 c-18 -3 -28 -11 -28 -21 0 -9 -3 -41 -6 -69 l-7 -53 37 0
c53 0 78 16 75 48 -2 15 1 37 5 50 5 14 3 29 -4 37 -12 15 -20 16 -72 8z m52
-37 c0 -15 -48 -28 -56 -15 -9 15 6 29 32 29 14 0 24 -6 24 -14z m0 -61 c0
-16 -42 -31 -59 -21 -6 4 -8 13 -4 21 7 20 63 20 63 0z"/>
<path d="M943 113 c-46 -4 -56 -8 -83 -41 l-30 -36 -28 27 c-19 19 -39 27 -63
27 -49 0 -733 -61 -738 -66 -17 -16 54 -14 385 15 l376 33 34 -33 35 -33 38
42 c34 37 44 42 84 42 57 0 107 10 107 21 0 9 -12 9 -117 2z"/>
</g>
</svg>
