<svg width="16" height="16" viewBox="0 0 16 16" fill="none" xmlns="http://www.w3.org/2000/svg">
<path opacity="0.4" d="M12.4466 1.33325H11.18C9.72663 1.33325 8.95996 2.09992 8.95996 3.55325V4.81992C8.95996 6.27325 9.72663 7.03992 11.18 7.03992H12.4466C13.9 7.03992 14.6666 6.27325 14.6666 4.81992V3.55325C14.6666 2.09992 13.9 1.33325 12.4466 1.33325Z" fill="black"/>
<path opacity="0.4" d="M4.82658 8.95337H3.55992C2.09992 8.95337 1.33325 9.72004 1.33325 11.1734V12.44C1.33325 13.9 2.09992 14.6667 3.55325 14.6667H4.81992C6.27325 14.6667 7.03992 13.9 7.03992 12.4467V11.18C7.04659 9.72004 6.27992 8.95337 4.82658 8.95337Z" fill="black"/>
<path d="M4.19325 7.05325C5.77279 7.05325 7.05325 5.77279 7.05325 4.19325C7.05325 2.61372 5.77279 1.33325 4.19325 1.33325C2.61372 1.33325 1.33325 2.61372 1.33325 4.19325C1.33325 5.77279 2.61372 7.05325 4.19325 7.05325Z" fill="black"/>
<path d="M11.8068 14.6668C13.3863 14.6668 14.6668 13.3863 14.6668 11.8068C14.6668 10.2272 13.3863 8.94678 11.8068 8.94678C10.2272 8.94678 8.94678 10.2272 8.94678 11.8068C8.94678 13.3863 10.2272 14.6668 11.8068 14.6668Z" fill="black"/>
</svg>
