<svg width="56" height="56" viewBox="0 0 56 56" fill="none" xmlns="http://www.w3.org/2000/svg">
<path opacity="0.4" d="M28.0001 51.3334C40.8867 51.3334 51.3334 40.8867 51.3334 28.0001C51.3334 15.1134 40.8867 4.66675 28.0001 4.66675C15.1134 4.66675 4.66675 15.1134 4.66675 28.0001C4.66675 40.8867 15.1134 51.3334 28.0001 51.3334Z" fill="#110F0E"/>
<path d="M28.0001 46.0834C18.0367 46.0834 9.91675 37.9634 9.91675 28.0001C9.91675 27.0434 10.7101 26.2501 11.6667 26.2501C12.6234 26.2501 13.4167 27.0434 13.4167 28.0001C13.4167 36.0501 19.9501 42.5834 28.0001 42.5834C36.0501 42.5834 42.5834 36.0501 42.5834 28.0001C42.5834 19.9501 36.0501 13.4167 28.0001 13.4167C27.0434 13.4167 26.2501 12.6234 26.2501 11.6667C26.2501 10.7101 27.0434 9.91675 28.0001 9.91675C37.9634 9.91675 46.0834 18.0367 46.0834 28.0001C46.0834 37.9634 37.9634 46.0834 28.0001 46.0834Z" fill="#110F0E"/>
<path d="M28 39.0834C27.0433 39.0834 26.25 38.2901 26.25 37.3334C26.25 36.3767 27.0433 35.5834 28 35.5834C32.1767 35.5834 35.5833 32.1767 35.5833 28.0001C35.5833 23.8234 32.1767 20.4167 28 20.4167C27.0433 20.4167 26.25 19.6234 26.25 18.6667C26.25 17.7101 27.0433 16.9167 28 16.9167C34.1133 16.9167 39.0833 21.8867 39.0833 28.0001C39.0833 34.1134 34.1133 39.0834 28 39.0834Z" fill="#110F0E"/>
</svg>
