<svg width="56" height="56" viewBox="0 0 56 56" fill="none" xmlns="http://www.w3.org/2000/svg">
<path opacity="0.6" d="M32.6667 37.3332C32.6667 41.4632 30.8701 45.1966 28.0001 47.7399C25.5267 49.9799 22.2601 51.3332 18.6667 51.3332C10.9434 51.3332 4.66675 45.0566 4.66675 37.3332C4.66675 30.8932 9.05342 25.4332 14.9801 23.8232C16.5901 27.8832 20.0434 31.0099 24.3134 32.1766C25.4801 32.5032 26.7167 32.6666 28.0001 32.6666C29.2834 32.6666 30.5201 32.5032 31.6868 32.1766C32.3167 33.7632 32.6667 35.5132 32.6667 37.3332Z" fill="#110F0E"/>
<path d="M42 18.6667C42 20.4867 41.65 22.2367 41.02 23.8234C39.41 27.8834 35.9567 31.0101 31.6867 32.1768C30.52 32.5034 29.2833 32.6667 28 32.6667C26.7167 32.6667 25.48 32.5034 24.3133 32.1768C20.0433 31.0101 16.59 27.8834 14.98 23.8234C14.35 22.2367 14 20.4867 14 18.6667C14 10.9434 20.2767 4.66675 28 4.66675C35.7233 4.66675 42 10.9434 42 18.6667Z" fill="#110F0E"/>
<path opacity="0.4" d="M51.3333 37.3332C51.3333 45.0566 45.0567 51.3332 37.3333 51.3332C33.74 51.3332 30.4733 49.9799 28 47.7399C30.87 45.1966 32.6667 41.4632 32.6667 37.3332C32.6667 35.5132 32.3167 33.7632 31.6867 32.1766C35.9567 31.0099 39.41 27.8832 41.02 23.8232C46.9467 25.4332 51.3333 30.8932 51.3333 37.3332Z" fill="#110F0E"/>
</svg>
