<svg width="56" height="56" viewBox="0 0 56 56" fill="none" xmlns="http://www.w3.org/2000/svg">
<path d="M46.6667 28.4669V32.4336C46.6667 39.7836 42.4667 42.9336 36.1667 42.9336H15.1667C8.86675 42.9336 4.66675 39.7836 4.66675 32.4336V19.8335C4.66675 12.4835 8.86675 9.3335 15.1667 9.3335H21.4667C21.1634 10.2202 21.0001 11.2002 21.0001 12.2502V21.3502C21.0001 23.6136 21.7467 25.5269 23.0767 26.8569C24.4067 28.1869 26.3201 28.9336 28.5834 28.9336V32.1768C28.5834 33.3668 29.9367 34.0902 30.9401 33.4369L37.6834 28.9336H43.7501C44.8001 28.9336 45.7801 28.7702 46.6667 28.4669Z" fill="#181818"/>
<path opacity="0.4" d="M51.3333 12.2498V21.3499C51.3333 24.8266 49.56 27.4399 46.6667 28.4665C45.78 28.7699 44.8 28.9332 43.75 28.9332H37.6833L30.94 33.4365C29.9367 34.0899 28.5833 33.3665 28.5833 32.1765V28.9332C26.32 28.9332 24.4067 28.1865 23.0767 26.8565C21.7467 25.5265 21 23.6132 21 21.3499V12.2498C21 11.1998 21.1633 10.2198 21.4667 9.33317C22.4933 6.43984 25.1067 4.6665 28.5833 4.6665H43.75C48.3 4.6665 51.3333 7.69984 51.3333 12.2498Z" fill="#181818"/>
<path opacity="0.4" d="M34.0666 49.5835H27.4166V42.9336C27.4166 41.9769 26.6233 41.1836 25.6666 41.1836C24.7099 41.1836 23.9166 41.9769 23.9166 42.9336V49.5835H17.2666C16.3099 49.5835 15.5166 50.3769 15.5166 51.3335C15.5166 52.2902 16.3099 53.0835 17.2666 53.0835H34.0666C35.0233 53.0835 35.8166 52.2902 35.8166 51.3335C35.8166 50.3769 35.0233 49.5835 34.0666 49.5835Z" fill="#181818"/>
<path d="M36.0266 18.6665C35.0466 18.6665 34.2766 17.8732 34.2766 16.9165C34.2766 15.9598 35.0699 15.1665 36.0266 15.1665C36.9833 15.1665 37.7766 15.9598 37.7766 16.9165C37.7766 17.8732 36.9833 18.6665 36.0266 18.6665Z" fill="#181818"/>
<path d="M42.5833 18.6665C41.6033 18.6665 40.8333 17.8732 40.8333 16.9165C40.8333 15.9598 41.6266 15.1665 42.5833 15.1665C43.5399 15.1665 44.3333 15.9598 44.3333 16.9165C44.3333 17.8732 43.5399 18.6665 42.5833 18.6665Z" fill="#181818"/>
<path d="M29.4468 18.6665C28.4668 18.6665 27.6968 17.8732 27.6968 16.9165C27.6968 15.9598 28.4901 15.1665 29.4468 15.1665C30.4034 15.1665 31.1968 15.9598 31.1968 16.9165C31.1968 17.8732 30.4268 18.6665 29.4468 18.6665Z" fill="#181818"/>
</svg>
