<svg width="117" height="26" viewBox="0 0 117 26" fill="none" xmlns="http://www.w3.org/2000/svg">
<g clip-path="url(#clip0_777_40408)">
<path d="M1.13134 15.3269L2.58882 15.0981V1.65573L0.955078 1.44431L1.04321 0H11.2198L10.9728 4.0676L8.94169 4.01454L8.81864 1.46172H5.66922V7.50592H7.04106L7.35866 6.11467L8.78455 6.14949V10.3232H7.37612L7.04023 8.89716H5.66922V15.3095H8.8361L9.13624 12.5278L11.273 12.5983L11.4318 16.8417H1.0615L1.13134 15.3269Z" fill="#131111"/>
<path d="M12.3641 16.8417L12.4174 15.5914L13.5614 15.3625V6.8874L12.2236 6.76386V5.49615L15.5701 5.02108L15.822 5.74323V6.21831C16.6343 5.37262 17.6054 4.88013 18.8417 4.88013C20.6609 4.88013 22.0028 5.97206 22.0028 8.15593V15.3634L23.2167 15.5922L23.146 16.8425H19.1992V8.76284C19.1992 7.60043 18.7711 6.94875 17.7285 6.94875C17.3751 6.94875 17.1232 7.01923 16.8413 7.10711C16.6642 7.24806 16.5054 7.45948 16.3641 7.65349V15.3625L17.5647 15.5914L17.4765 16.8417H12.3641Z" fill="#131111"/>
<path d="M76.2108 16.8417L76.264 15.5914L77.4081 15.3625V6.8874L76.0703 6.76386V5.49615L79.4168 5.02108L79.6679 5.74323V6.21831C80.4802 5.37262 81.4513 4.88013 82.6876 4.88013C84.5067 4.88013 85.8486 5.97206 85.8486 8.15593V15.3634L87.0625 15.5922L86.9918 16.8425H83.0451V8.76284C83.0451 7.60043 82.6161 6.94875 81.5743 6.94875C81.2218 6.94875 80.9699 7.01923 80.6872 7.10711C80.5109 7.24806 80.3513 7.45948 80.2108 7.65349V15.3625L81.4113 15.5914L81.3232 16.8417H76.2108Z" fill="#131111"/>
<path d="M29.5259 16.6079C29.0669 16.802 28.2372 17.0125 27.1596 17.0125C25.7471 17.0125 24.4318 16.3791 24.4318 14.3179V6.88167L23.0898 6.67025L23.1431 5.19112L24.6621 5.12065L25.3156 2.8663L27.2494 2.77759V5.19029H29.3513L29.2058 6.66942L27.2868 6.88167V14.3005C27.2868 14.9166 27.6227 15.322 28.2579 15.322H29.4011L29.5259 16.6079Z" fill="#131111"/>
<path d="M108.624 16.8417L108.677 15.6262L109.755 15.3799V6.88822L108.483 6.76469V5.49615L111.94 5.02107L112.169 5.84852V6.11301C113.07 5.44392 114.306 5.00366 115.772 5.00366L116.285 5.44392L115.931 8.63184L114.024 8.56137L113.83 6.8534C113.389 6.92388 112.965 7.04741 112.611 7.29366V15.3808L113.813 15.627L113.725 16.8425H108.624V16.8417Z" fill="#131111"/>
<path d="M58.8454 16.8417L58.8987 15.6262L59.9762 15.3799V6.88822L58.7041 6.76469V5.49615L62.1603 5.02107L62.3898 5.84852V6.11301C63.291 5.44392 64.5265 5.00366 65.9931 5.00366L66.5053 5.44392L66.152 8.63184L64.2447 8.56137L64.051 6.8534C63.6095 6.92388 63.1854 7.04741 62.8321 7.29366V15.3808L64.0335 15.627L63.9454 16.8425H58.8454V16.8417Z" fill="#131111"/>
<path d="M30.3679 16.8417L30.4211 15.6262L31.4986 15.3799V6.88822L30.2266 6.76469V5.49615L33.6836 5.02107L33.9131 5.84852V6.11301C34.8135 5.44392 36.0498 5.00366 37.5156 5.00366L38.0278 5.44392L37.6744 8.63184L35.7671 8.56137L35.5726 6.8534C35.1311 6.92388 34.7071 7.04741 34.3537 7.29366V15.3808L35.5551 15.627L35.467 16.8425H30.3679V16.8417Z" fill="#131111"/>
<path d="M41.3244 11.6771C41.3244 13.7018 42.2024 15.2696 43.9625 15.2696C44.8629 15.2696 45.5871 15.0756 46.4351 14.6884L46.9124 15.7978C46.0468 16.4843 44.7881 17.0124 43.1984 17.0124C40.1213 17.0124 38.3438 14.3535 38.3438 10.9367C38.3438 8.0307 39.6241 4.85107 43.1651 4.85107C46.2406 4.85107 47.4079 7.69657 47.4079 10.8663L47.1077 11.6232L41.3244 11.6771ZM41.2712 10.3207L44.8255 10.1623C44.7548 8.75286 44.4622 6.5068 43.0712 6.5068C42.7411 6.5068 42.5033 6.55987 42.0793 6.7887C41.5073 7.7571 41.2637 9.50735 41.2712 10.3207Z" fill="#131111"/>
<path d="M90.4317 11.6771C90.4317 13.7018 91.3096 15.2696 93.0698 15.2696C93.971 15.2696 94.6943 15.0756 95.5424 14.6884L96.0188 15.7978C95.1541 16.4843 93.8945 17.0124 92.3049 17.0124C89.2278 17.0124 87.4502 14.3535 87.4502 10.9367C87.4502 8.0307 88.7298 4.85107 92.2716 4.85107C95.347 4.85107 96.5143 7.69657 96.5143 10.8663L96.2142 11.6232L90.4317 11.6771ZM90.3785 10.3207L93.9328 10.1623C93.8621 8.75286 93.5694 6.5068 92.1785 6.5068C91.8484 6.5068 91.6106 6.55987 91.1866 6.7887C90.6146 7.7571 90.3718 9.50735 90.3785 10.3207Z" fill="#131111"/>
<path d="M69.8008 11.6771C69.8008 13.7018 70.6788 15.2696 72.4389 15.2696C73.3401 15.2696 74.0635 15.0756 74.9115 14.6884L75.3879 15.7978C74.5233 16.4843 73.2637 17.0124 71.674 17.0124C68.5969 17.0124 66.8193 14.3535 66.8193 10.9367C66.8193 8.0307 68.0989 4.85107 71.6399 4.85107C74.7153 4.85107 75.8826 7.69657 75.8826 10.8663L75.5825 11.6232L69.8008 11.6771ZM69.7476 10.3207L73.3019 10.1623C73.2312 8.75286 72.9386 6.5068 71.5476 6.5068C71.2175 6.5068 70.9798 6.55987 70.5557 6.7887C69.9837 7.7571 69.7409 9.50735 69.7476 10.3207Z" fill="#131111"/>
<path d="M104.504 16.8417L104.203 15.8376C103.426 16.5772 102.667 17.0174 101.484 17.0174C99.6647 17.0174 98.036 16.1021 98.036 13.6007V6.58476L96.6982 6.46122V5.35188L100.539 4.91162L100.839 5.91567V13.2491C100.839 14.5351 101.358 15.2042 102.402 15.2042C102.699 15.2042 103.074 15.1685 103.409 15.0284C103.602 14.8344 103.779 14.6056 103.938 14.3767V6.58476L102.561 6.46122V5.35188L106.441 4.91162L106.741 5.91567V15.3625L107.937 15.5914L107.796 16.8417H104.504Z" fill="#131111"/>
<path d="M53.1598 15.327C52.5421 15.327 52.0649 15.2208 51.6766 15.0102V7.56071C51.8354 7.31447 52.03 7.08563 52.2245 6.87421C52.5779 6.75067 52.9104 6.69844 53.2812 6.69844C54.8692 6.69844 55.132 8.30276 55.132 11.174C55.132 13.939 54.7196 14.7002 54.609 15.0111C54.1842 15.2217 53.7252 15.327 53.1598 15.327ZM57.8964 10.6533C57.8964 7.09724 56.8372 4.86279 54.2091 4.86279C52.4615 4.86279 51.6309 5.8685 51.2883 6.293V5.90581L50.9882 4.90176L47.5361 5.37767V6.59148L48.8739 6.76725V21.1316L47.7432 21.3604L47.6899 22.5584H52.789L52.8772 21.3604L51.6766 21.1316V16.5764C52.1538 16.8409 52.8373 17.0167 53.5797 17.0167C57.8574 17.0183 57.8964 12.6548 57.8964 10.6533Z" fill="#131111"/>
<path d="M115.558 15.1934C116.139 15.1934 116.51 15.5366 116.51 16.0191C116.51 16.5058 116.129 16.8449 115.558 16.8449C114.996 16.8449 114.605 16.5058 114.605 16.0191C114.605 15.5316 114.991 15.1934 115.558 15.1934ZM115.558 16.5863C115.954 16.5863 116.213 16.3533 116.213 16.0183C116.213 15.6834 115.954 15.4504 115.558 15.4504C115.168 15.4504 114.908 15.6792 114.908 16.0183C114.908 16.3533 115.168 16.5863 115.558 16.5863ZM115.143 16.3914L115.148 16.277L115.246 16.2554V15.7472L115.134 15.7348L115.139 15.6203H115.593C115.789 15.6203 115.97 15.6834 115.965 15.8533C115.96 15.9719 115.892 16.0399 115.799 16.078C115.848 16.1543 115.916 16.2347 115.965 16.2646L116.033 16.277L116.023 16.3914H115.794C115.715 16.3276 115.642 16.243 115.574 16.1079H115.501V16.2563L115.598 16.2778L115.589 16.3922H115.143V16.3914ZM115.499 15.7605V15.981H115.582C115.695 15.981 115.72 15.9387 115.72 15.8749C115.72 15.7779 115.646 15.7605 115.553 15.7605H115.499Z" fill="#131111"/>
<path d="M94.0902 26H93.4883V20.1025H94.0902V26Z" fill="#131111"/>
<path d="M100.063 25.1261H100.079V20.1025H100.681V26H99.9298L96.4877 20.9267H96.4711V26H95.8691V20.1025H96.6207L100.063 25.1261Z" fill="#131111"/>
<path d="M102.459 20.1025H104.422C104.789 20.1025 105.159 20.1639 105.529 20.2858C105.899 20.4076 106.234 20.5925 106.531 20.8396C106.828 21.0875 107.069 21.3951 107.254 21.7641C107.438 22.1339 107.529 22.5633 107.529 23.0517C107.529 23.5467 107.438 23.9761 107.254 24.3434C107.069 24.7091 106.828 25.0167 106.531 25.2629C106.234 25.5108 105.899 25.6949 105.529 25.8176C105.159 25.9403 104.789 26.0008 104.422 26.0008H102.459V20.1025ZM103.061 25.4677H104.256C104.701 25.4677 105.09 25.3981 105.421 25.2588C105.751 25.1203 106.027 24.9379 106.244 24.7132C106.461 24.4885 106.624 24.2323 106.732 23.943C106.841 23.6536 106.895 23.3568 106.895 23.0517C106.895 22.7466 106.841 22.4489 106.732 22.1604C106.624 21.8719 106.461 21.6148 106.244 21.3893C106.026 21.1646 105.751 20.9831 105.421 20.8446C105.09 20.7053 104.701 20.6357 104.256 20.6357H103.061V25.4677Z" fill="#131111"/>
<path d="M109.593 26H108.991V20.1025H109.593V26Z" fill="#131111"/>
<path d="M111.331 26H110.671L113.227 20.1025H113.811L116.351 26H115.683L115.031 24.4504H111.974L111.331 26ZM112.2 23.9007H114.806L113.504 20.7691L112.2 23.9007Z" fill="#131111"/>
</g>
<defs>
<clipPath id="clip0_777_40408">
<rect width="115.556" height="26" fill="white" transform="translate(0.955078)"/>
</clipPath>
</defs>
</svg>
