<svg width="36" height="36" viewBox="0 0 36 36" fill="none" xmlns="http://www.w3.org/2000/svg">
    <path d="M13.7144 3.71436C9.97157 3.71436 6.92871 6.75721 6.92871 10.5001C6.92871 14.1715 9.80014 17.1429 13.543 17.2715C13.6573 17.2572 13.7716 17.2572 13.8573 17.2715C13.8859 17.2715 13.9001 17.2715 13.9287 17.2715C13.943 17.2715 13.943 17.2715 13.9573 17.2715C17.6144 17.1429 20.4859 14.1715 20.5001 10.5001C20.5001 6.75721 17.4573 3.71436 13.7144 3.71436Z" fill="black" />
    <path d="M20.9715 21.0715C16.9858 18.4143 10.4858 18.4143 6.47151 21.0715C4.65723 22.2858 3.65723 23.9286 3.65723 25.6858C3.65723 27.4429 4.65723 29.0715 6.45723 30.2715C8.45723 31.6143 11.0858 32.2858 13.7144 32.2858C16.3429 32.2858 18.9715 31.6143 20.9715 30.2715C22.7715 29.0572 23.7715 27.4286 23.7715 25.6572C23.7572 23.9 22.7715 22.2715 20.9715 21.0715Z" fill="black" />
    <path d="M29.4144 11.343C29.643 14.1144 27.6715 16.543 24.943 16.8716C24.9287 16.8716 24.9287 16.8716 24.9144 16.8716H24.8715C24.7858 16.8716 24.7001 16.8716 24.6287 16.9001C23.243 16.9716 21.9715 16.5287 21.0144 15.7144C22.4858 14.4001 23.3287 12.4287 23.1573 10.2859C23.0573 9.12871 22.6573 8.07157 22.0573 7.17157C22.6001 6.90014 23.2287 6.72871 23.8715 6.67157C26.6715 6.42871 29.1715 8.51443 29.4144 11.343Z" fill="black" />
    <path d="M32.2713 24.5573C32.1571 25.943 31.2713 27.143 29.7856 27.9573C28.3571 28.743 26.5571 29.1144 24.7713 29.0716C25.7999 28.143 26.3999 26.9859 26.5142 25.7573C26.6571 23.9859 25.8142 22.2859 24.1285 20.9287C23.1713 20.1716 22.0571 19.5716 20.8428 19.1287C23.9999 18.2144 27.9713 18.8287 30.4142 20.8001C31.7285 21.8573 32.3999 23.1859 32.2713 24.5573Z" fill="black" />
</svg>