<svg width="36" height="36" viewBox="0 0 36 36" fill="none" xmlns="http://www.w3.org/2000/svg">
<path d="M13.7144 32.2855H22.2859C24.6573 32.2855 26.5716 30.3713 26.5716 27.9998V7.99983C26.5716 5.6284 24.6573 3.71411 22.2859 3.71411H13.7144C11.343 3.71411 9.42871 5.6284 9.42871 7.99983V27.9998C9.42871 30.3713 11.343 32.2855 13.7144 32.2855Z" fill="black"/>
<path d="M21.6087 16.828C22.511 17.3489 22.511 18.6512 21.6087 19.1722L16.5333 22.1024C15.631 22.6234 14.5032 21.9722 14.5032 20.9303L14.5032 15.0698C14.5032 14.0279 15.631 13.3768 16.5333 13.8977L21.6087 16.828Z" fill="white"/>
<path d="M7.28578 9.32838V26.6712C7.28578 27.1284 6.8715 27.4569 6.42864 27.3712C4.31436 26.9855 3.71436 25.757 3.71436 22.757V13.2427C3.71436 10.2427 4.31436 9.0141 6.42864 8.62838C6.8715 8.54267 7.28578 8.87124 7.28578 9.32838Z" fill="black"/>
<path d="M32.2855 13.2427V22.757C32.2855 25.757 31.6855 26.9855 29.5713 27.3712C29.1284 27.4569 28.7141 27.1141 28.7141 26.6712V9.32838C28.7141 8.87124 29.1284 8.54267 29.5713 8.62838C31.6855 9.0141 32.2855 10.2427 32.2855 13.2427Z" fill="black"/>
</svg>
