<svg width="36" height="36" viewBox="0 0 36 36" fill="none" xmlns="http://www.w3.org/2000/svg">
<path d="M25.9001 11.9572C25.8001 11.9429 25.7001 11.9429 25.6001 11.9572C23.3858 11.8858 21.6287 10.0715 21.6287 7.84293C21.6287 5.5715 23.4715 3.71436 25.7572 3.71436C28.0287 3.71436 29.8858 5.55721 29.8858 7.84293C29.8715 10.0715 28.1144 11.8858 25.9001 11.9572Z" fill="#171717"/>
<path d="M30.5573 21.8573C28.9573 22.9287 26.7144 23.3287 24.643 23.0572C25.1858 21.8858 25.4715 20.5858 25.4858 19.2144C25.4858 17.7858 25.1715 16.4287 24.5715 15.243C26.6858 14.9573 28.9287 15.3572 30.543 16.4287C32.8001 17.9144 32.8001 20.3573 30.5573 21.8573Z" fill="#171717"/>
<path d="M10.0572 11.9572C10.1572 11.9429 10.2572 11.9429 10.3572 11.9572C12.5715 11.8858 14.3287 10.0715 14.3287 7.84293C14.3287 5.5715 12.4858 3.71436 10.2001 3.71436C7.92868 3.71436 6.07153 5.55721 6.07153 7.84293C6.08582 10.0715 7.84296 11.8858 10.0572 11.9572Z" fill="#171717"/>
<path d="M10.2144 19.2144C10.2144 20.6002 10.5144 21.9144 11.0573 23.1002C9.04299 23.3144 6.94299 22.8859 5.40013 21.8716C3.14299 20.3716 3.14299 17.9287 5.40013 16.4287C6.9287 15.4001 9.08585 14.9859 11.1144 15.2144C10.5287 16.4144 10.2144 17.7716 10.2144 19.2144Z" fill="#171717"/>
<path d="M18.1715 23.5286C18.0572 23.5143 17.9287 23.5143 17.8001 23.5286C15.1715 23.4429 13.0715 21.2858 13.0715 18.6286C13.0715 15.9144 15.2573 13.7144 17.9858 13.7144C20.7001 13.7144 22.9001 15.9144 22.9001 18.6286C22.9001 21.2858 20.8144 23.4429 18.1715 23.5286Z" fill="black"/>
<path d="M13.5285 26.4858C11.3714 27.9287 11.3714 30.3001 13.5285 31.7287C15.9856 33.3715 20.0142 33.3715 22.4714 31.7287C24.6285 30.2858 24.6285 27.9144 22.4714 26.4858C20.0285 24.8429 15.9999 24.8429 13.5285 26.4858Z" fill="black"/>
</svg>
