<svg width="56" height="56" viewBox="0 0 56 56" fill="none" xmlns="http://www.w3.org/2000/svg">
<path d="M12.6232 4.6665H43.3533C45.92 4.6665 48.02 6.78981 48.02 9.37981V14.5598C48.02 16.4498 46.8533 18.8065 45.6866 19.9732L35.6766 28.9332C34.2766 30.1232 33.3432 32.4798 33.3432 34.3465V44.4732C33.3432 45.8965 32.41 47.7632 31.2433 48.4865L27.9766 50.6098C24.9432 52.4998 20.7667 50.3765 20.7667 46.5965V34.1132C20.7667 32.4565 19.8332 30.3332 18.8999 29.1665L10.0566 19.7398C8.88993 18.5498 7.95654 16.4498 7.95654 15.0265V9.61316C7.97988 6.78983 10.0799 4.6665 12.6232 4.6665Z" fill="#E6E3D8"/>
<path d="M41.8152 23.6135C41.0452 23.4268 40.2286 23.3335 39.3886 23.3335C33.2753 23.3335 28.3053 28.3035 28.3053 34.4168C28.3053 36.4935 28.8886 38.4535 29.9153 40.1335C30.7786 41.5802 31.9686 42.8169 33.4153 43.7035C35.142 44.8469 37.1953 45.5002 39.3886 45.5002C43.4486 45.5002 46.972 43.3302 48.8853 40.1335C49.912 38.4535 50.472 36.4935 50.472 34.4168C50.472 29.1435 46.7852 24.7102 41.8152 23.6135ZM44.9186 32.9702L38.992 38.4302C38.6653 38.7335 38.222 38.8969 37.802 38.8969C37.3586 38.8969 36.9152 38.7335 36.5652 38.3835L33.8353 35.6535C33.1586 34.9768 33.1586 33.8568 33.8353 33.1802C34.512 32.5035 35.6319 32.5035 36.3086 33.1802L37.8486 34.7202L42.5386 30.4035C43.2619 29.7502 44.3586 29.7968 45.0119 30.4968C45.6652 31.2202 45.6186 32.3168 44.9186 32.9702Z" fill="#110F0E"/>
</svg>
