<svg width="90" height="24" viewBox="0 0 90 24" fill="none" xmlns="http://www.w3.org/2000/svg">
<g clip-path="url(#clip0_777_40399)">
<path d="M50.676 8.08892C50.676 5.51114 50.7207 3.11114 50.8549 0.888916L44.0116 2.1778V2.80003L44.6825 2.88892C45.1745 2.93336 45.4876 3.11114 45.6665 3.3778C45.8454 3.68892 45.9796 4.13336 46.0691 4.80003C46.1585 6.08892 46.248 9.02225 46.2033 13.6445C46.2033 18.2222 46.1585 21.1111 46.0691 22.2222C48.5291 22.7556 50.4524 22.9778 51.8836 22.9778C54.5673 22.9778 56.6694 22.2222 58.1902 20.6667C59.7109 19.1556 60.516 17.0222 60.516 14.4C60.516 12.3111 59.9345 10.5778 58.7716 9.20003C57.6087 7.82225 56.1327 7.15558 54.3884 7.15558C53.2254 7.15558 52.0178 7.46669 50.676 8.08892V8.08892ZM50.8102 21.7778C50.7207 20.3556 50.6313 16.0889 50.6313 9.11114C51.0338 8.9778 51.5705 8.88892 52.2414 8.88892C53.3149 8.88892 54.1647 9.42225 54.7909 10.5334C55.4171 11.6445 55.7302 12.9778 55.7302 14.6667C55.7302 16.7556 55.3724 18.4445 54.6567 19.8667C53.9411 21.2445 53.0465 21.9556 51.9284 21.9556C51.5705 21.8667 51.2127 21.8222 50.8102 21.7778V21.7778ZM18.3382 1.33336H0.447266V2.22225L1.38654 2.31114C2.10217 2.44447 2.59417 2.71114 2.90727 3.11114C3.22036 3.55558 3.39927 4.26669 3.44399 5.24447C3.80181 10.0445 3.80181 14.5334 3.44399 18.6667C3.35454 19.6445 3.17563 20.3556 2.90727 20.8C2.59417 21.2445 2.10217 21.5111 1.38654 21.6L0.447266 21.7334V22.6222H11.9869V21.7334L10.7793 21.6445C10.0636 21.5556 9.57163 21.2445 9.25854 20.8445C8.94545 20.4 8.76654 19.6889 8.72181 18.7111C8.58763 16.9334 8.49817 14.8889 8.49817 12.6222L10.9134 12.6667C12.2105 12.7111 13.1051 13.6889 13.5524 15.6445H14.4469V8.40003H13.5524C13.1051 10.3111 12.2553 11.2889 10.9134 11.3334L8.49817 11.3778C8.49817 7.3778 8.58763 4.53336 8.72181 2.80003H12.2553C14.76 2.80003 16.4596 4.40003 17.4436 7.60003L18.5171 7.28892L18.3382 1.33336ZM16.236 15.0222C16.236 17.3334 16.9069 19.2445 18.204 20.7556C19.5011 22.2667 21.4244 22.9778 23.8396 22.9778C26.2549 22.9778 28.2229 22.2222 29.6542 20.6667C31.0854 19.1556 31.7564 17.2445 31.7564 14.9334C31.7564 12.6222 31.0854 10.7111 29.7884 9.20003C28.4913 7.68892 26.568 6.9778 24.1527 6.9778C21.7374 6.9778 19.7694 7.73336 18.3382 9.28892C16.9069 10.8 16.236 12.7111 16.236 15.0222V15.0222ZM26.2102 9.95558C26.7469 11.2445 26.9705 12.9334 26.9705 14.9778C26.9705 19.6889 25.9865 22 24.0633 22C23.0793 22 22.3189 21.3334 21.7822 20C21.2454 18.6667 21.0218 16.9778 21.0218 14.9778C21.0218 10.3111 22.0058 8.00003 23.9291 8.00003C24.9131 7.95558 25.6734 8.62225 26.2102 9.95558V9.95558ZM64.0047 20.7556C65.4807 22.2222 67.3593 22.9778 69.5956 22.9778C70.9822 22.9778 72.1898 22.7111 73.2633 22.1334C74.3367 21.6 75.1865 20.9334 75.768 20.1334L75.3207 19.6C74.3367 20.3556 73.2185 20.7111 71.9214 20.7111C70.1324 20.7111 68.7458 20.1334 67.8065 18.9334C66.8225 17.7334 66.3753 16.2222 66.4647 14.2667H76.0364C76.0364 12.1334 75.4996 10.4 74.3814 9.02225C73.2633 7.68892 71.6978 7.02225 69.6851 7.02225C67.1804 7.02225 65.2571 7.82225 63.8705 9.3778C62.484 10.9334 61.8131 12.8445 61.8131 15.1111C61.8131 17.4222 62.5287 19.2889 64.0047 20.7556V20.7556ZM67.3145 9.60003C67.8065 8.53336 68.4327 8.00003 69.2825 8.00003C70.6244 8.00003 71.2953 9.68892 71.2953 13.1111L66.5542 13.2C66.5989 11.8667 66.8225 10.6667 67.3145 9.60003ZM88.068 7.82225C86.8604 7.28892 85.3396 6.9778 83.5058 6.9778C81.6273 6.9778 80.1513 7.46669 79.0331 8.40003C77.9149 9.33336 77.3334 10.4889 77.3334 11.8667C77.3334 13.0667 77.6913 14 78.3622 14.6667C79.0331 15.3334 80.1065 15.9111 81.4931 16.4C82.7454 16.8445 83.64 17.2889 84.0873 17.6889C84.5345 18.1334 84.8029 18.6222 84.8029 19.2889C84.8029 19.9111 84.5793 20.4889 84.0873 20.9334C83.64 21.4222 83.0138 21.6445 82.2087 21.6445C80.2407 21.6445 78.7647 20.2222 77.736 17.3778L76.9756 17.6L77.1545 22.0445C78.7647 22.6667 80.5538 22.9778 82.5218 22.9778C84.5793 22.9778 86.1447 22.5334 87.3076 21.6C88.4705 20.7111 89.052 19.4222 89.052 17.8222C89.052 16.7556 88.7836 15.8667 88.2022 15.2C87.6207 14.5334 86.6814 13.9556 85.3396 13.4222C83.8636 12.8889 82.8349 12.4 82.2982 11.9556C81.7614 11.5111 81.4931 10.9778 81.4931 10.3111C81.4931 9.64447 81.672 9.11114 82.0745 8.66669C82.4771 8.22225 82.9691 8.04447 83.5953 8.04447C85.3844 8.04447 86.6814 9.33336 87.4865 11.8667L88.2469 11.6445L88.068 7.82225ZM45.0404 7.42225C44.4142 7.11114 43.7433 6.9778 42.9829 6.9778C42.2225 6.9778 41.4622 7.28892 40.6124 7.91114C39.7625 8.53336 39.1364 9.3778 38.6444 10.5334L38.6891 6.9778L31.8905 8.31114V8.93336L32.5614 8.9778C33.4113 9.06669 33.9033 9.73336 33.9927 10.9334C34.2611 13.6889 34.2611 16.6222 33.9927 19.7334C33.9033 20.9334 33.4113 21.5556 32.5614 21.6889L31.8905 21.7778V22.6222H41.3727V21.7778L40.1651 21.6889C39.3153 21.6 38.8233 20.9334 38.7338 19.7334C38.4654 17.1556 38.4207 14.4 38.6444 11.5556C38.9127 11.1111 39.4942 10.8445 40.3887 10.7556C41.2833 10.6667 42.312 10.9334 43.3854 11.5556L45.0404 7.42225V7.42225Z" fill="#131111"/>
</g>
<defs>
<clipPath id="clip0_777_40399">
<rect width="89.4545" height="24" fill="white"/>
</clipPath>
</defs>
</svg>
