<svg width="71" height="28" viewBox="0 0 71 28" fill="none" xmlns="http://www.w3.org/2000/svg">
<g clip-path="url(#clip0_3484_64366)">
<path d="M3.03516 16.8741L11.7806 8.12866H17.6973L5.9118 19.9774L3.03516 16.8741Z" fill="url(#paint0_linear_3484_64366)"/>
<path d="M19.7569 27.9775C19.7569 27.9775 10.1289 17.2838 9.61238 16.2552C7.81234 12.1385 9.72357 10.1881 9.72357 10.1881L6.12994 13.7817V0H0.962891V27.9775H6.12994V20.2868L13.0688 27.9775H19.7569Z" fill="black"/>
<path d="M26.8683 27.9775H21.7012V0H26.8683V27.9775Z" fill="black"/>
<path d="M48.2006 23.3182V8.12866H43.0336V20.9864C41.0723 23.2921 36.8052 24.58 36.3171 21.8472V8.12866H31.1522V22.0542C31.0738 24.3207 32.2135 26.7745 34.4211 27.6245C37.5396 28.6116 40.7061 27.4065 43.3104 25.4713C43.5283 26.2297 43.9467 27.3869 44.4719 27.9775H48.7912C48.4147 26.4525 48.2165 24.8889 48.2006 23.3182Z" fill="black"/>
<path d="M70.2132 14.1043C68.6986 9.00694 63.1153 6.39398 57.6475 9.40793V0H52.4805V25.9115C62.2937 31.3488 73.1966 25.735 70.2132 14.1043ZM64.9458 20.1277C64.1374 23.6713 61.0646 24.9417 57.6475 23.8783V13.7686C63.4008 9.57136 66.3122 14.6011 64.9458 20.1277Z" fill="black"/>
</g>
<defs>
<linearGradient id="paint0_linear_3484_64366" x1="19.323" y1="11.6308" x2="2.1678" y2="15.5971" gradientUnits="userSpaceOnUse">
<stop stop-color="#F7F6F5"/>
<stop offset="0.06" stop-color="#EAE8E7"/>
<stop offset="0.68" stop-color="#5F5A5B"/>
<stop offset="0.95" stop-color="#272123"/>
</linearGradient>
<clipPath id="clip0_3484_64366">
<rect width="70" height="28" fill="white" transform="translate(0.962891)"/>
</clipPath>
</defs>
</svg>
