<svg width="56" height="56" viewBox="0 0 56 56" fill="none" xmlns="http://www.w3.org/2000/svg">
<path d="M46.34 18.8767C46.34 19.2267 46.3401 19.5767 46.3168 19.9034C42.7468 18.5734 38.5468 19.39 35.7468 21.91C33.8568 20.2067 31.4067 19.2501 28.7934 19.2501C23.0534 19.2501 18.3868 23.9401 18.3868 29.7267C18.3868 36.3301 21.7001 41.16 24.8734 44.2867C24.6168 44.2634 24.4068 44.2167 24.2201 44.1467C18.1768 42.07 4.66675 33.4834 4.66675 18.8767C4.66675 12.4367 9.84673 7.2334 16.2401 7.2334C20.0434 7.2334 23.4034 9.05338 25.5034 11.8767C27.6267 9.05338 30.9867 7.2334 34.7667 7.2334C41.1601 7.2334 46.34 12.4367 46.34 18.8767Z" fill="#110F0E"/>
<path d="M41.9999 22.3765C39.5033 22.3765 37.2399 23.5898 35.8399 25.4565C34.4399 23.5898 32.2 22.3765 29.68 22.3765C25.4333 22.3765 21.98 25.8298 21.98 30.1231C21.98 31.7798 22.2366 33.2965 22.7033 34.6965C24.8966 41.6265 31.6399 45.7565 34.9766 46.8998C35.4433 47.0632 36.2133 47.0632 36.7033 46.8998C40.04 45.7565 46.7833 41.6265 48.9766 34.6965C49.4433 33.2731 49.6999 31.7565 49.6999 30.1231C49.6999 25.8298 46.2466 22.3765 41.9999 22.3765Z" fill="#E6E3D8"/>
</svg>
