<svg width="56" height="56" viewBox="0 0 56 56" fill="none" xmlns="http://www.w3.org/2000/svg">
<path opacity="0.4" d="M38.4533 4.66675H19.88C11.83 4.66675 7 9.47341 7 17.5467V36.0967C7 44.1934 11.83 49.0001 19.88 49.0001H38.43C46.5033 49.0001 51.31 44.1934 51.31 36.1201V17.5467C51.3333 9.47341 46.5033 4.66675 38.4533 4.66675Z" fill="#FF4F00"/>
<path d="M25.6666 37.6832V43.9833C25.6666 49.2332 23.5666 51.3332 18.3166 51.3332H12.0166C6.76663 51.3332 4.66663 49.2332 4.66663 43.9833V37.6832C4.66663 32.4333 6.76663 30.3333 12.0166 30.3333H18.3166C23.5666 30.3333 25.6666 32.4333 25.6666 37.6832Z" fill="#FF4F00"/>
<path d="M28.6113 25.7834C28.6113 25.9934 28.6579 26.1801 28.7279 26.3901C28.7279 26.4134 28.7513 26.4367 28.7513 26.4367C28.8213 26.6001 28.9379 26.7634 29.0546 26.8801C29.1013 26.9267 29.1479 26.9734 29.1946 26.9967C29.3113 27.0901 29.4279 27.1834 29.5446 27.2301C29.5913 27.2534 29.6613 27.2767 29.7079 27.3001C29.8946 27.3701 30.1046 27.4167 30.3146 27.4167L39.6946 27.4167C40.6513 27.4167 41.4446 26.6234 41.4446 25.6667C41.4446 24.7101 40.6746 23.9867 39.6946 23.9867L34.5379 23.9867L43.2646 15.2367C43.9413 14.5601 43.9413 13.4401 43.2646 12.7634C42.9146 12.4134 42.4713 12.2501 42.0279 12.2501C41.5846 12.2501 41.1413 12.4134 40.7913 12.7634L32.0879 21.4901L32.0879 16.3567C32.0879 15.4001 31.2946 14.6067 30.3379 14.6067C29.3813 14.6067 28.5879 15.4001 28.5879 16.3567L28.5879 25.7367C28.5879 25.7601 28.5879 25.7601 28.6113 25.7834Z" fill="#FF4F00"/>
</svg>
