<svg width="56" height="56" viewBox="0 0 56 56" fill="none" xmlns="http://www.w3.org/2000/svg">
<path d="M42 12.25H14C13.0433 12.25 12.25 11.4567 12.25 10.5C12.25 9.54333 13.0433 8.75 14 8.75H42C42.9567 8.75 43.75 9.54333 43.75 10.5C43.75 11.4567 42.9567 12.25 42 12.25Z" fill="black"/>
<path d="M35 6.4165H21C20.0433 6.4165 19.25 5.62317 19.25 4.6665C19.25 3.70984 20.0433 2.9165 21 2.9165H35C35.9567 2.9165 36.75 3.70984 36.75 4.6665C36.75 5.62317 35.9567 6.4165 35 6.4165Z" fill="black"/>
<path d="M42 16.3335H14C8.86669 16.3335 4.66669 20.5335 4.66669 25.6668V42.0002C4.66669 47.1335 8.86669 51.3335 14 51.3335H42C47.1334 51.3335 51.3334 47.1335 51.3334 42.0002V25.6668C51.3334 20.5335 47.1334 16.3335 42 16.3335Z" fill="black"/>
<path d="M22.1665 30.4372V39.5641C22.1665 41.4333 24.391 42.6064 26.1665 41.6718L30.5007 39.3924L34.8349 37.1035C36.6104 36.1689 36.6104 33.8323 34.8349 32.8977L30.5007 30.6088L26.1665 28.3295C24.391 27.3949 22.1665 28.5584 22.1665 30.4372Z" fill="white"/>
</svg>
