<svg width="56" height="56" viewBox="0 0 56 56" fill="none" xmlns="http://www.w3.org/2000/svg">
<path d="M51.3333 28.0002C51.3333 34.4402 46.1067 39.6668 39.6667 39.6668C39.6667 33.2268 34.44 28.0002 28 28.0002C34.44 28.0002 39.6667 22.7735 39.6667 16.3335C46.1067 16.3335 51.3333 21.5602 51.3333 28.0002Z" fill="#E6E3D8"/>
<path d="M39.6667 39.6667C33.2267 39.6667 28 34.44 28 28C34.44 28 39.6667 33.2267 39.6667 39.6667Z" fill="#110F0E"/>
<path d="M39.6666 39.6667C39.6666 46.1067 34.4399 51.3333 27.9999 51.3333C21.5599 51.3333 16.3333 46.1067 16.3333 39.6667C22.7733 39.6667 27.9999 34.44 27.9999 28C27.9999 34.44 33.2266 39.6667 39.6666 39.6667Z" fill="#E6E3D8"/>
<path d="M39.6667 16.3335C39.6667 22.7735 34.44 28.0002 28 28.0002C28 21.5602 33.2267 16.3335 39.6667 16.3335Z" fill="#110F0E"/>
<path d="M39.6666 16.3332C33.2266 16.3332 27.9999 21.5598 27.9999 27.9998C27.9999 21.5598 22.7733 16.3332 16.3333 16.3332C16.3333 9.89317 21.5599 4.6665 27.9999 4.6665C34.4399 4.6665 39.6666 9.89317 39.6666 16.3332Z" fill="#E6E3D8"/>
<path d="M27.9999 28C27.9999 34.44 22.7733 39.6667 16.3333 39.6667C16.3333 33.2267 21.5599 28 27.9999 28Z" fill="#110F0E"/>
<path d="M27.9999 28.0002C21.5599 28.0002 16.3333 22.7735 16.3333 16.3335C22.7733 16.3335 27.9999 21.5602 27.9999 28.0002Z" fill="#110F0E"/>
<path d="M28.0001 28.0002C21.5601 28.0002 16.3334 33.2268 16.3334 39.6668C9.89341 39.6668 4.66675 34.4402 4.66675 28.0002C4.66675 21.5602 9.89341 16.3335 16.3334 16.3335C16.3334 22.7735 21.5601 28.0002 28.0001 28.0002Z" fill="#E6E3D8"/>
</svg>
