<svg width="16" height="16" viewBox="0 0 16 16" fill="none" xmlns="http://www.w3.org/2000/svg">
<path opacity="0.4" d="M11.6867 5.18017C11.64 5.1735 11.5934 5.1735 11.5467 5.18017C10.5134 5.14683 9.69336 4.30016 9.69336 3.26016C9.69336 2.20016 10.5534 1.3335 11.62 1.3335C12.68 1.3335 13.5467 2.1935 13.5467 3.26016C13.54 4.30016 12.72 5.14683 11.6867 5.18017Z" fill="black"/>
<path opacity="0.4" d="M13.86 9.79977C13.1133 10.2998 12.0667 10.4864 11.1 10.3598C11.3533 9.81311 11.4867 9.20645 11.4933 8.56645C11.4933 7.89978 11.3467 7.26645 11.0667 6.71311C12.0533 6.57978 13.1 6.76644 13.8533 7.26644C14.9067 7.95977 14.9067 9.09977 13.86 9.79977Z" fill="black"/>
<path opacity="0.4" d="M4.29335 5.18017C4.34001 5.1735 4.38668 5.1735 4.43335 5.18017C5.46668 5.14683 6.28668 4.30016 6.28668 3.26016C6.28668 2.20016 5.42668 1.3335 4.36002 1.3335C3.30002 1.3335 2.43335 2.1935 2.43335 3.26016C2.44002 4.30016 3.26001 5.14683 4.29335 5.18017Z" fill="black"/>
<path opacity="0.4" d="M4.36668 8.56658C4.36668 9.21324 4.50668 9.82658 4.76002 10.3799C3.82002 10.4799 2.84002 10.2799 2.12002 9.80658C1.06668 9.10658 1.06668 7.96657 2.12002 7.26657C2.83335 6.78657 3.84002 6.59324 4.78668 6.69991C4.51335 7.25991 4.36668 7.89324 4.36668 8.56658Z" fill="black"/>
<path d="M8.08001 10.58C8.02668 10.5733 7.96668 10.5733 7.90668 10.58C6.68001 10.54 5.70001 9.53333 5.70001 8.29333C5.70001 7.02667 6.72001 6 7.99335 6C9.26001 6 10.2867 7.02667 10.2867 8.29333C10.2867 9.53333 9.31335 10.54 8.08001 10.58Z" fill="black"/>
<path d="M5.91333 11.9598C4.90666 12.6331 4.90666 13.7398 5.91333 14.4064C7.05999 15.1731 8.93999 15.1731 10.0867 14.4064C11.0933 13.7331 11.0933 12.6264 10.0867 11.9598C8.94666 11.1931 7.06666 11.1931 5.91333 11.9598Z" fill="black"/>
</svg>  
