<svg width="12" height="13" viewBox="0 0 12 13" fill="none" xmlns="http://www.w3.org/2000/svg">
<path d="M11.1429 4.71868H7.28571V0.861537C7.28571 0.388234 6.90188 0.00439453 6.42857 0.00439453H5.57143C5.09812 0.00439453 4.71429 0.388234 4.71429 0.861537V4.71868H0.857143C0.383839 4.71868 0 5.10252 0 5.57582V6.43297C0 6.90627 0.383839 7.29011 0.857143 7.29011H4.71429V11.1473C4.71429 11.6206 5.09812 12.0044 5.57143 12.0044H6.42857C6.90188 12.0044 7.28571 11.6206 7.28571 11.1473V7.29011H11.1429C11.6162 7.29011 12 6.90627 12 6.43297V5.57582C12 5.10252 11.6162 4.71868 11.1429 4.71868Z" fill="black"/>
</svg>
