<svg width="17" height="16" viewBox="0 0 17 16" fill="none" xmlns="http://www.w3.org/2000/svg">
<path opacity="0.4" d="M6.49992 1.3335C4.75325 1.3335 3.33325 2.7535 3.33325 4.50016C3.33325 6.2135 4.67325 7.60016 6.41992 7.66016C6.47325 7.6535 6.52659 7.6535 6.56659 7.66016C6.57992 7.66016 6.58659 7.66016 6.59992 7.66016C6.60659 7.66016 6.60659 7.66016 6.61325 7.66016C8.31992 7.60016 9.65992 6.2135 9.66659 4.50016C9.66659 2.7535 8.24659 1.3335 6.49992 1.3335Z" fill="black"/>
<path d="M9.88664 9.43342C8.02664 8.19342 4.99331 8.19342 3.11997 9.43342C2.27331 10.0001 1.80664 10.7668 1.80664 11.5868C1.80664 12.4068 2.27331 13.1668 3.11331 13.7268C4.04664 14.3534 5.27331 14.6668 6.49997 14.6668C7.72664 14.6668 8.95331 14.3534 9.88664 13.7268C10.7266 13.1601 11.1933 12.4001 11.1933 11.5734C11.1866 10.7534 10.7266 9.99342 9.88664 9.43342Z" fill="black"/>
<path opacity="0.4" d="M13.8267 4.89356C13.9334 6.1869 13.0134 7.32023 11.7401 7.47356C11.7334 7.47356 11.7334 7.47356 11.7267 7.47356H11.7067C11.6667 7.47356 11.6267 7.47356 11.5934 7.4869C10.9467 7.52023 10.3534 7.31356 9.90674 6.93356C10.5934 6.32023 10.9867 5.40023 10.9067 4.40023C10.8601 3.86023 10.6734 3.3669 10.3934 2.9469C10.6467 2.82023 10.9401 2.74023 11.2401 2.71356C12.5467 2.60023 13.7134 3.57356 13.8267 4.89356Z" fill="black"/>
<path d="M15.16 11.0599C15.1067 11.7066 14.6933 12.2666 14 12.6466C13.3333 13.0133 12.4933 13.1866 11.66 13.1666C12.14 12.7333 12.42 12.1933 12.4733 11.6199C12.54 10.7933 12.1467 9.99994 11.36 9.36661C10.9133 9.01327 10.3933 8.73327 9.82666 8.52661C11.3 8.09994 13.1533 8.38661 14.2933 9.30661C14.9067 9.79994 15.22 10.4199 15.16 11.0599Z" fill="black"/>
</svg>
