<svg width="56" height="56" viewBox="0 0 56 56" fill="none" xmlns="http://www.w3.org/2000/svg">
<path d="M37.7766 4.6665H18.2233C9.72996 4.6665 4.66663 9.72984 4.66663 18.2232V37.7532C4.66663 46.2698 9.72996 51.3332 18.2233 51.3332H37.7533C46.2466 51.3332 51.31 46.2698 51.31 37.7765V18.2232C51.3333 9.72984 46.27 4.6665 37.7766 4.6665ZM43.1666 38.2665C43.1666 41.7665 41.7666 43.1665 38.2666 43.1665H29.4C25.9 43.1665 24.5 41.7665 24.5 38.2665V34.0665C24.5 30.5665 25.9 29.1665 29.4 29.1665H38.2666C41.7666 29.1665 43.1666 30.5665 43.1666 34.0665V38.2665Z" fill="black"/>
</svg>
