<svg width="56" height="56" viewBox="0 0 56 56" fill="none" xmlns="http://www.w3.org/2000/svg">
<path opacity="0.4" d="M48.79 25.9465C48.79 37.3565 40.5067 48.0432 29.19 51.1699C28.42 51.3799 27.5799 51.3799 26.8099 51.1699C15.4933 48.0432 7.20996 37.3565 7.20996 25.9465V15.7032C7.20996 13.7899 8.65666 11.6199 10.4533 10.8966L23.4499 5.57658C26.3666 4.38658 29.6566 4.38658 32.5733 5.57658L45.57 10.8966C47.3433 11.6199 48.8133 13.7899 48.8133 15.7032L48.79 25.9465Z" fill="#110F0E"/>
<path d="M33.8333 24.5001C33.8333 21.2801 31.22 18.6667 28 18.6667C24.78 18.6667 22.1666 21.2801 22.1666 24.5001C22.1666 27.1134 23.8933 29.2834 26.25 30.0301V36.1667C26.25 37.1234 27.0433 37.9167 28 37.9167C28.9566 37.9167 29.75 37.1234 29.75 36.1667V30.0301C32.1066 29.2834 33.8333 27.1134 33.8333 24.5001Z" fill="#110F0E"/>
</svg>
