<svg width="56" height="56" viewBox="0 0 56 56" fill="none" xmlns="http://www.w3.org/2000/svg">
<path d="M31.3366 34.9999H10.2666C6.01989 34.9999 3.31322 30.4499 5.36655 26.7166L10.8032 16.8232L15.8899 7.55986C18.0132 3.70986 23.5665 3.70986 25.6899 7.55986L30.7999 16.8232L33.2499 21.2799L36.2366 26.7166C38.2899 30.4499 35.5832 34.9999 31.3366 34.9999Z" fill="#181818"/>
<path opacity="0.4" d="M51.3333 36.1667C51.3333 44.5433 44.5433 51.3333 36.1667 51.3333C27.79 51.3333 21 44.5433 21 36.1667C21 35.77 21.0233 35.3967 21.0467 35H31.3367C35.5833 35 38.29 30.45 36.2367 26.7167L33.25 21.28C34.1833 21.0933 35.1633 21 36.1667 21C44.5433 21 51.3333 27.79 51.3333 36.1667Z" fill="#A3A3A3"/>
</svg>
