<svg width="16" height="17" viewBox="0 0 16 17" fill="none" xmlns="http://www.w3.org/2000/svg">
    <path opacity="0.4" d="M6.00012 15.1663H10.0001C11.1068 15.1663 12.0001 14.273 12.0001 13.1663V3.83301C12.0001 2.72634 11.1068 1.83301 10.0001 1.83301H6.00012C4.89346 1.83301 4.00012 2.72634 4.00012 3.83301V13.1663C4.00012 14.273 4.89346 15.1663 6.00012 15.1663Z" fill="#FE4001"/>
    <path d="M9.68408 7.95302C10.1051 8.19612 10.1051 8.80388 9.68408 9.04698L7.31557 10.4144C6.89451 10.6575 6.36817 10.3537 6.36817 9.86746L6.36817 7.13254C6.36817 6.64634 6.89451 6.34246 7.31557 6.58556L9.68408 7.95302Z" fill="#292D32"/>
    <path d="M3.00004 4.45315V12.5465C3.00004 12.7598 2.80671 12.9131 2.60004 12.8731C1.61337 12.6931 1.33337 12.1198 1.33337 10.7198V6.27981C1.33337 4.87981 1.61337 4.30648 2.60004 4.12648C2.80671 4.08648 3.00004 4.23981 3.00004 4.45315Z" fill="#FE4001"/>
    <path d="M14.6667 6.27981V10.7198C14.6667 12.1198 14.3867 12.6931 13.4 12.8731C13.1933 12.9131 13 12.7531 13 12.5465V4.45315C13 4.23981 13.1933 4.08648 13.4 4.12648C14.3867 4.30648 14.6667 4.87981 14.6667 6.27981Z" fill="#FE4001"/>
</svg>
