<svg width="126" height="28" viewBox="0 0 126 28" fill="none" xmlns="http://www.w3.org/2000/svg">
<g clip-path="url(#clip0_3472_66576)">
<mask id="mask0_3472_66576" style="mask-type:luminance" maskUnits="userSpaceOnUse" x="0" y="3" width="17" height="22">
<path d="M0 3.30066H16.4838V24.6803H0V3.30066Z" fill="white"/>
</mask>
<g mask="url(#mask0_3472_66576)">
<path d="M12.9802 6.76837L5.92501 13.8202C5.27397 14.4708 4.39126 14.8362 3.4709 14.8362C2.55054 14.8362 1.66783 14.4708 1.01678 13.8202C0.694444 13.4983 0.438733 13.1159 0.264267 12.695C0.0898002 12.2741 0 11.823 0 11.3674C0 10.9118 0.0898002 10.4606 0.264267 10.0397C0.438733 9.61885 0.694444 9.23648 1.01678 8.91448L5.61866 4.3159C6.26971 3.66535 7.15242 3.29993 8.07278 3.29993C8.99314 3.29993 9.87585 3.66535 10.5269 4.3159L12.981 6.76837H12.9802ZM3.50549 21.2114L10.5607 14.1595C11.2117 13.509 12.0944 13.1436 13.0148 13.1436C13.9351 13.1436 14.8178 13.509 15.4689 14.1595C15.7912 14.4815 16.0469 14.8639 16.2214 15.2848C16.3959 15.7057 16.4857 16.1568 16.4857 16.6124C16.4857 17.068 16.3959 17.5192 16.2214 17.9401C16.0469 18.3609 15.7912 18.7433 15.4689 19.0653L10.8678 23.6639C10.2168 24.3144 9.33408 24.6799 8.41372 24.6799C7.49336 24.6799 6.61065 24.3144 5.9596 23.6639L3.50549 21.2114Z" fill="black"/>
</g>
<path d="M28.8066 18.065C28.9903 19.7664 30.5484 22.6825 35.0704 22.6825C39.0118 22.6825 40.9068 20.1922 40.9068 17.7611C40.9068 15.5746 39.4088 13.7818 36.4457 13.174L34.307 12.7186C33.4818 12.5671 32.9317 12.1109 32.9317 11.382C32.9317 10.5313 33.7873 9.89392 34.8571 9.89392C36.5676 9.89392 37.2091 11.018 37.3318 11.8984L40.7231 11.1391C40.5395 9.5291 39.1032 6.82545 34.8266 6.82545C31.5877 6.82545 29.2044 9.04322 29.2044 11.7164C29.2044 13.8123 30.5179 15.5442 33.4209 16.1816L35.4064 16.6378C36.5676 16.8807 37.0263 17.4276 37.0263 18.0955C37.0263 18.886 36.3839 19.5844 35.0399 19.5844C33.2677 19.5844 32.3816 18.4907 32.2902 17.3057L28.8066 18.065ZM47.0149 13.4483C47.1071 11.8078 48.1151 10.5313 49.8264 10.5313C51.7815 10.5313 52.6066 11.8375 52.6066 13.5084V22.2271H56.6699V12.81C56.6699 9.5291 54.8985 6.8864 51.0782 6.8864C49.6428 6.8864 47.9932 7.37228 47.0149 8.52687V0.0206299L42.9516 1.04181V22.2271H47.0149V13.4483ZM66.325 19.0071C64.3386 19.0071 62.5055 17.5495 62.5055 14.7544C62.5055 11.9297 64.3386 10.5009 66.325 10.5009C68.3105 10.5009 70.1437 11.9289 70.1437 14.7544C70.1437 17.5791 68.3105 19.0071 66.325 19.0071ZM66.325 6.82545C61.8335 6.82545 58.4422 10.136 58.4422 14.7544C58.4422 19.3415 61.8335 22.6825 66.325 22.6825C70.8165 22.6825 74.2078 19.3415 74.2078 14.7544C74.2078 10.1369 70.8165 6.82545 66.325 6.82545ZM80.2566 27.9984V20.7695C80.9896 21.7725 82.5181 22.5927 84.5958 22.5927C88.8428 22.5927 91.6839 19.2509 91.6839 14.7247C91.6839 10.2892 89.1483 6.94816 84.7482 6.94816C82.4876 6.94816 80.8068 7.95039 80.1348 9.10498L79.2972 7.46369L76.1925 8.14722V27.9984H80.2566ZM87.6816 14.7544C87.6816 17.4276 86.0312 18.9766 83.9535 18.9766C81.8765 18.9766 80.1957 17.3971 80.1957 14.7544C80.1957 12.1109 81.8757 10.5626 83.9535 10.5626C86.0312 10.5626 87.6816 12.1109 87.6816 14.7544ZM100.035 3.57498H101.754V0.324512C101.418 0.172983 100.156 0.0206299 99.3008 0.0206299C95.9704 0.0206299 93.8317 2.20792 93.8317 5.57945V22.2271H97.9263V11.1325H101.083V7.28087H97.9263V5.64122C97.9263 3.96945 99.1179 3.57498 100.035 3.57498ZM107.412 22.2271V0.0206299L103.348 0.9471V22.2271H107.412ZM117.292 19.0071C115.306 19.0071 113.473 17.5495 113.473 14.7544C113.473 11.9297 115.306 10.5009 117.292 10.5009C119.279 10.5009 121.112 11.9289 121.112 14.7544C121.112 17.5791 119.279 19.0071 117.292 19.0071ZM117.292 6.82545C112.801 6.82545 109.41 10.136 109.41 14.7544C109.41 19.3415 112.801 22.6825 117.292 22.6825C121.784 22.6825 125.175 19.3415 125.175 14.7544C125.175 10.1369 121.784 6.82545 117.292 6.82545Z" fill="black"/>
<path d="M99.2852 0H101.756V0.665412H99.2852V0Z" fill="black"/>
</g>
<defs>
<clipPath id="clip0_3472_66576">
<rect width="125.176" height="28" fill="white"/>
</clipPath>
</defs>
</svg>
