<svg width="56" height="56" viewBox="0 0 56 56" fill="none" xmlns="http://www.w3.org/2000/svg">
<path opacity="0.4" d="M21.0001 51.3332H35.0001C38.8734 51.3332 42.0001 48.2065 42.0001 44.3332V11.6665C42.0001 7.79317 38.8734 4.6665 35.0001 4.6665H21.0001C17.1267 4.6665 14.0001 7.79317 14.0001 11.6665V44.3332C14.0001 48.2065 17.1267 51.3332 21.0001 51.3332Z" fill="#FE4001"/>
<path d="M33.8943 26.0856C35.368 26.9364 35.368 29.0636 33.8943 29.9144L25.6045 34.7005C24.1308 35.5514 22.2886 34.4878 22.2886 32.7861L22.2886 23.2139C22.2886 21.5122 24.1308 20.4486 25.6045 21.2995L33.8943 26.0856Z" fill="#FF4F00"/>
<path d="M10.5 13.8365V42.1632C10.5 42.9098 9.82335 43.4465 9.10002 43.3065C5.64669 42.6765 4.66669 40.6698 4.66669 35.7698V20.2298C4.66669 15.3298 5.64669 13.3232 9.10002 12.6932C9.82335 12.5532 10.5 13.0898 10.5 13.8365Z" fill="#FE4001"/>
<path d="M51.3331 20.2298V35.7698C51.3331 40.6698 50.3531 42.6765 46.8998 43.3065C46.1764 43.4465 45.4998 42.8865 45.4998 42.1632V13.8365C45.4998 13.0898 46.1764 12.5532 46.8998 12.6932C50.3531 13.3232 51.3331 15.3298 51.3331 20.2298Z" fill="#FF4F00"/>
</svg>
