<svg width="16" height="16" viewBox="0 0 16 16" fill="none" xmlns="http://www.w3.org/2000/svg">
<path d="M11.7104 10.2107L10.8191 9.32573L11.6954 8.44201C11.9852 8.1523 12.2144 7.80772 12.3699 7.42805C12.5254 7.04837 12.6041 6.64109 12.6015 6.22957C12.5989 5.81805 12.5151 5.41041 12.3548 5.03005C12.1945 4.64968 11.9609 4.30408 11.6674 4.0131C11.3739 3.72211 11.0264 3.49146 10.6447 3.3344C10.263 3.17734 9.85461 3.09695 9.44309 3.09785C9.03156 3.09875 8.62496 3.18092 8.24662 3.33965C7.86828 3.49838 7.52566 3.73054 7.23842 4.0228L6.36219 4.90714L5.4703 4.02342L6.34779 3.1397C7.16133 2.31922 8.27027 1.85828 9.43065 1.85828C10.591 1.85828 11.7078 2.31922 12.5353 3.1397C13.3628 3.96019 13.8332 5.073 13.8431 6.23334C13.8529 7.39368 13.4014 8.5065 12.5879 9.32698L11.711 10.2107H11.7104ZM9.95791 11.9781L9.08105 12.8619C8.2675 13.6823 7.15857 14.1433 5.99819 14.1433C4.8378 14.1433 3.72103 13.6823 2.89354 12.8619C2.06606 12.0414 1.59564 10.9286 1.58578 9.76821C1.57592 8.60787 2.02742 7.49506 2.84096 6.67458L3.71783 5.79086L4.6091 6.67583L3.73286 7.55954C3.44305 7.84925 3.21381 8.19383 3.0583 8.57351C2.9028 8.95318 2.82408 9.36047 2.82668 9.77198C2.82927 10.1835 2.91313 10.5911 3.07343 10.9715C3.23374 11.3519 3.46733 11.6975 3.7608 11.9885C4.05427 12.2794 4.40184 12.5101 4.78355 12.6672C5.16526 12.8242 5.5736 12.9046 5.98513 12.9037C6.39665 12.9028 6.80325 12.8206 7.18159 12.6619C7.55993 12.5032 7.90255 12.271 8.18979 11.9788L9.06603 11.095L9.95792 11.9788L9.95791 11.9781ZM9.45907 5.349L10.351 6.23334L5.96914 10.6519L5.07725 9.76821L9.45908 5.34962L9.45907 5.349Z" fill="#F7F5F2"/>
</svg>
