<svg width="16" height="16" viewBox="0 0 16 16" fill="none" xmlns="http://www.w3.org/2000/svg">
<path d="M14.6239 4.03595C14.1485 4.247 13.6437 4.38561 13.1261 4.44718C13.6694 4.12059 14.0738 3.6066 14.2638 3.00098C13.7539 3.30597 13.1938 3.51972 12.6092 3.63534C12.2122 3.21446 11.6885 2.93534 11.1193 2.84136C10.5501 2.74737 9.96743 2.8438 9.46182 3.11564C8.95621 3.38748 8.556 3.81951 8.32342 4.34456C8.09084 4.86961 8.03891 5.45826 8.1757 6.019C7.13595 5.96691 6.11692 5.69684 5.18477 5.22632C4.25262 4.7558 3.42818 4.09535 2.76499 3.28785C2.53606 3.68687 2.41783 4.14046 2.42241 4.60218C2.43011 5.50839 2.89817 6.30899 3.6034 6.77772C3.18829 6.76466 2.78148 6.65259 2.41687 6.45086L2.41715 6.48336C2.4224 7.0869 2.63623 7.67183 3.02237 8.13896C3.40852 8.6061 3.94322 8.92669 4.53581 9.04639C4.15145 9.15079 3.74764 9.16617 3.35494 9.09139C3.52615 9.61089 3.85509 10.0652 4.29573 10.3908C4.73636 10.7163 5.26661 10.8968 5.81224 10.9069C5.27366 11.3328 4.65552 11.6475 3.99317 11.8333C3.33081 12.019 2.63722 12.0721 1.95207 11.9894C3.15341 12.7578 4.54775 13.1657 5.9683 13.1644C10.7764 13.1644 13.372 9.18139 13.3426 5.72714C13.3416 5.61464 13.3376 5.50089 13.3316 5.38965C13.8403 5.01977 14.2781 4.56157 14.6245 4.03657L14.6239 4.03595Z" fill="#F7F5F2"/>
</svg>
