<svg width="17" height="16" viewBox="0 0 17 16" fill="none" xmlns="http://www.w3.org/2000/svg">
<path d="M5.31043 3.62589C5.31309 3.95739 5.18393 4.27526 4.95139 4.50955C4.71884 4.74385 4.40195 4.87538 4.07043 4.87522C3.7389 4.87505 3.41991 4.7432 3.18361 4.50867C2.94731 4.27414 2.81307 3.95614 2.81042 3.62464C2.80777 3.29313 2.93692 2.97526 3.16947 2.74097C3.40202 2.50667 3.71891 2.37514 4.05043 2.37531C4.38195 2.37547 4.70095 2.50732 4.93725 2.74185C5.17354 2.97638 5.30778 3.29438 5.31043 3.62589ZM5.36642 5.80081H2.86642L2.93292 13.6255H5.43292L5.36642 5.80081ZM9.31642 5.80081H6.82892L6.89542 13.6255H9.35792L9.32302 9.51942C9.30358 7.232 12.283 7.01951 12.3043 9.51942L12.3392 13.6255H14.8079L14.7658 8.66945C14.733 4.81334 10.3217 4.95709 9.30034 6.85077L9.31642 5.80081Z" fill="#F7F5F2"/>
</svg>
