<svg width="56" height="56" viewBox="0 0 56 56" fill="none" xmlns="http://www.w3.org/2000/svg">
<path opacity="0.4" d="M36.1199 4.6665H17.5699C9.49661 4.6665 4.68994 9.47314 4.68994 17.5465V36.0965C4.68994 44.1698 9.51994 48.9765 17.5699 48.9765H36.1199C44.1933 48.9765 48.9999 44.1698 48.9999 36.0965V17.5465C48.9999 9.47314 44.1699 4.6665 36.1199 4.6665Z" fill="#FF4F00"/>
<path d="M37.3018 18.6667H25.6982C24.4054 18.6667 23.3334 17.6089 23.3334 16.3333C23.3334 15.0578 24.4054 14 25.6982 14H37.3018C38.5946 14 39.6667 15.0578 39.6667 16.3333C39.6667 17.6089 38.6262 18.6667 37.3018 18.6667Z" fill="#FF4F00"/>
<path d="M37.3018 28.0002H25.6982C24.4054 28.0002 23.3334 26.9424 23.3334 25.6668C23.3334 24.3913 24.4054 23.3335 25.6982 23.3335H37.3018C38.5946 23.3335 39.6667 24.3913 39.6667 25.6668C39.6667 26.9424 38.6262 28.0002 37.3018 28.0002Z" fill="#FF4F00"/>
<path d="M37.3018 37.3332H25.6982C24.4054 37.3332 23.3334 36.2754 23.3334 34.9998C23.3334 33.7243 24.4054 32.6665 25.6982 32.6665H37.3018C38.5946 32.6665 39.6667 33.7243 39.6667 34.9998C39.6667 36.2754 38.6262 37.3332 37.3018 37.3332Z" fill="#FF4F00"/>
<path d="M16.3333 18.6667C15.05 18.6667 14 17.6167 14 16.3333C14 15.05 15.0267 14 16.3333 14C17.6167 14 18.6667 15.05 18.6667 16.3333C18.6667 17.6167 17.64 18.6667 16.3333 18.6667Z" fill="#FF4F00"/>
<path d="M16.3333 28.0002C15.05 28.0002 14 26.9502 14 25.6668C14 24.3835 15.0267 23.3335 16.3333 23.3335C17.6167 23.3335 18.6667 24.3835 18.6667 25.6668C18.6667 26.9502 17.64 28.0002 16.3333 28.0002Z" fill="#FF4F00"/>
<path d="M16.3333 37.3332C15.05 37.3332 14 36.2832 14 34.9998C14 33.7165 15.0267 32.6665 16.3333 32.6665C17.6167 32.6665 18.6667 33.7165 18.6667 34.9998C18.6667 36.2832 17.64 37.3332 16.3333 37.3332Z" fill="#FF4F00"/>
<path d="M53.5498 43.9199L49.7465 45.2033C48.6965 45.5533 47.8565 46.37 47.5065 47.4433L46.2231 51.2466C45.1265 54.5366 40.5065 54.4666 39.4798 51.1766L35.1631 37.2933C34.3231 34.5399 36.8665 31.9733 39.5965 32.8366L53.5031 37.1533C56.7698 38.1799 56.8165 42.8233 53.5498 43.9199Z" fill="black"/>
</svg>
