<svg width="56" height="56" viewBox="0 0 56 56" fill="none" xmlns="http://www.w3.org/2000/svg">
<path d="M44.3334 16.3334V18.9701C43.5867 18.7601 42.8167 18.6667 42 18.6667H14C13.1834 18.6667 12.4134 18.7601 11.6667 18.9701V16.3334C11.6667 13.7667 13.7667 11.6667 16.3334 11.6667H39.6667C42.2334 11.6667 44.3334 13.7667 44.3334 16.3334Z" fill="#FF4F00"/>
<path opacity="0.4" d="M37.3334 8.1901V11.6667H18.6667V8.1901C18.6667 6.25344 20.2534 4.66675 22.19 4.66675H33.81C35.7467 4.66675 37.3334 6.25344 37.3334 8.1901Z" fill="#FF4F00"/>
<path opacity="0.4" d="M51.3334 28.0001V42.0001C51.3334 47.1334 47.1334 51.3334 42 51.3334H14C8.86669 51.3334 4.66669 47.1334 4.66669 42.0001V28.0001C4.66669 23.6834 7.65335 20.0201 11.6667 18.9701C12.4134 18.7601 13.1834 18.6667 14 18.6667H42C42.8167 18.6667 43.5867 18.7601 44.3334 18.9701C48.3467 20.0201 51.3334 23.6834 51.3334 28.0001Z" fill="#FF4F00"/>
<path d="M22.1667 30.4372V39.5641C22.1667 41.4333 24.3912 42.6064 26.1667 41.6718L30.5009 39.3924L34.8351 37.1035C36.6106 36.1689 36.6106 33.8323 34.8351 32.8977L30.5009 30.6088L26.1667 28.3295C24.3912 27.3949 22.1667 28.5584 22.1667 30.4372Z" fill="#FF4F00"/>
</svg>
