<svg width="67" height="26" viewBox="0 0 67 26" fill="none" xmlns="http://www.w3.org/2000/svg">
<g clip-path="url(#clip0_777_40401)">
<path d="M13.6755 15.5925H15.2337V11.3534L17.1182 5.63571H15.6008L14.5403 9.29324H14.5117L13.4471 5.63571H11.791L13.6755 11.3534V15.5925ZM19.8226 15.7359C20.1451 15.7578 20.4686 15.7107 20.7717 15.5977C21.0747 15.4848 21.3505 15.3085 21.5806 15.0806C22.0128 14.5665 22.2306 13.9048 22.1884 13.2334V7.99897C22.2314 7.32498 22.0137 6.66033 21.5806 6.14358C21.3498 5.91651 21.074 5.7408 20.7711 5.62789C20.4682 5.51498 20.145 5.4674 19.8226 5.48826C19.5007 5.46721 19.1781 5.51471 18.8758 5.62765C18.5735 5.74058 18.2985 5.91641 18.0686 6.14358C17.6336 6.65782 17.4142 7.3215 17.4568 7.99487V13.2334C17.414 13.9055 17.6334 14.568 18.0686 15.0806C18.298 15.3084 18.573 15.4846 18.8754 15.5976C19.1778 15.7106 19.5007 15.7577 19.8226 15.7359ZM19.0068 7.89658C19.0068 7.24535 19.276 6.91768 19.8226 6.91768C20.3692 6.91768 20.6384 7.24535 20.6384 7.89658V13.3317C20.6384 13.987 20.3664 14.3147 19.8226 14.3147C19.2787 14.3147 19.0068 13.987 19.0068 13.3317V7.89658ZM25.5046 15.7359C25.8221 15.7571 26.1404 15.7104 26.4386 15.5988C26.7367 15.4873 27.0079 15.3134 27.2341 15.0888C27.6587 14.5681 27.8702 13.9048 27.8256 13.2334V5.63571H26.3245V13.344C26.3497 13.6079 26.2771 13.8718 26.1206 14.0853C26.0447 14.1636 25.9531 14.2245 25.8517 14.2641C25.7504 14.3037 25.6417 14.3209 25.5332 14.3147C25.4219 14.3242 25.3099 14.3086 25.2054 14.2689C25.1009 14.2292 25.0066 14.1664 24.9295 14.0853C24.7715 13.8724 24.6974 13.6084 24.7215 13.344V5.63571H23.1796V13.2334C23.1365 13.9053 23.3494 14.5685 23.7751 15.0888C24.0012 15.3136 24.2723 15.4876 24.5705 15.5992C24.8687 15.7108 25.1871 15.7574 25.5046 15.7359ZM30.4892 11.3247H31.048C31.1865 11.3099 31.3267 11.3264 31.458 11.3732C31.5893 11.42 31.7085 11.4958 31.8067 11.5951C31.981 11.8808 32.0583 12.2157 32.027 12.5494V14.3679C32.0138 14.63 32.0166 14.8926 32.0351 15.1543C32.0557 15.3097 32.094 15.4623 32.1493 15.6089H33.7361C33.6602 15.4447 33.6119 15.2689 33.5933 15.0888C33.5711 14.8601 33.5616 14.6304 33.5647 14.4007V12.6354C33.5838 12.1547 33.5046 11.6753 33.3322 11.2264C33.2577 11.0559 33.1455 10.9046 33.0042 10.784C32.8629 10.6633 32.6961 10.5765 32.5164 10.5302V10.5015C33.1963 10.2284 33.5362 9.57448 33.5362 8.53961V7.92525C33.5872 7.29869 33.3892 6.67731 32.9855 6.19683C32.744 5.99122 32.4642 5.83575 32.1625 5.73944C31.8607 5.64312 31.5429 5.60786 31.2275 5.63571H28.931V15.5925H30.4892V11.3247ZM30.4892 7.05694H31.1989C31.3113 7.048 31.4242 7.06514 31.5288 7.10704C31.6335 7.14895 31.7272 7.21449 31.8026 7.29859C31.9474 7.53226 32.0132 7.80664 31.9902 8.08089V8.85089C32.0208 9.14383 31.9375 9.43729 31.7577 9.67005C31.6633 9.75609 31.5524 9.8219 31.4317 9.86345C31.3111 9.905 31.1833 9.92141 31.0562 9.9117H30.4892V7.05694ZM36.6689 15.7359C36.9896 15.7581 37.3113 15.7112 37.6125 15.5981C37.9136 15.4851 38.1871 15.3086 38.4147 15.0806C38.8487 14.5565 39.0649 13.8847 39.0184 13.2047C39.0316 12.6366 38.9056 12.074 38.6513 11.5664C38.2957 10.9756 37.8402 10.4517 37.3052 10.0182C36.9031 9.68862 36.5477 9.30555 36.2487 8.87956C36.0533 8.57828 35.9472 8.22743 35.9428 7.8679C35.9428 7.23306 36.2039 6.91768 36.7219 6.91768C36.8297 6.91031 36.9378 6.92748 37.0381 6.9679C37.1384 7.00833 37.2283 7.07096 37.3011 7.15114C37.4531 7.36822 37.5239 7.63222 37.501 7.89658V8.40855H38.9735V7.99897C39.0213 7.33249 38.8223 6.67178 38.4147 6.14358C38.1964 5.91853 37.9319 5.74402 37.6395 5.63225C37.3471 5.52047 37.034 5.47413 36.7219 5.49645C36.405 5.47505 36.0872 5.52169 35.7897 5.63328C35.4922 5.74486 35.2218 5.91883 34.9965 6.14358C34.5716 6.65464 34.3584 7.31003 34.4009 7.97439C34.3916 8.51787 34.5238 9.05437 34.7844 9.53079C35.1465 10.1107 35.6013 10.6269 36.1304 11.0585C36.5294 11.3914 36.8784 11.7804 37.1665 12.2135C37.3581 12.5484 37.4553 12.9292 37.448 13.3153C37.4711 13.5854 37.3989 13.8551 37.244 14.0771C37.1668 14.1586 37.0727 14.2221 36.9684 14.2631C36.8641 14.3041 36.7521 14.3217 36.6403 14.3147C36.0964 14.3147 35.8245 13.9911 35.8245 13.344V12.6641H34.3724V13.2334C34.328 13.9028 34.5346 14.5646 34.9516 15.0888C35.1746 15.3144 35.4434 15.489 35.7398 15.6007C36.0362 15.7124 36.3531 15.7585 36.6689 15.7359ZM41.1272 15.5925H42.6854V7.05694H44.317V5.63571H39.4997V7.05694H41.1272V15.5925ZM47.262 15.7359C47.5846 15.7578 47.9081 15.7107 48.2111 15.5977C48.5142 15.4848 48.7899 15.3085 49.0201 15.0806C49.4523 14.5665 49.67 13.9048 49.6279 13.2334V7.99897C49.6709 7.32498 49.4532 6.66033 49.0201 6.14358C48.532 5.7207 47.9088 5.48805 47.2641 5.48805C46.6194 5.48805 45.9962 5.7207 45.5081 6.14358C45.073 6.65782 44.8537 7.3215 44.8962 7.99487V13.2334C44.8535 13.9055 45.0729 14.568 45.5081 15.0806C45.7375 15.3084 46.0125 15.4846 46.3149 15.5976C46.6173 15.7106 46.9401 15.7577 47.262 15.7359ZM46.4462 7.89658C46.4462 7.24535 46.7155 6.91768 47.262 6.91768C47.8086 6.91768 48.0778 7.24535 48.0778 7.89658V13.3317C48.0778 13.987 47.8059 14.3147 47.262 14.3147C46.7182 14.3147 46.4462 13.987 46.4462 13.3317V7.89658ZM52.2343 11.3247H52.7728C52.9113 11.3099 53.0514 11.3264 53.1828 11.3732C53.3141 11.42 53.4332 11.4958 53.5315 11.5951C53.7058 11.8808 53.7831 12.2157 53.7517 12.5494V14.3679C53.7461 14.6249 53.7556 14.882 53.7803 15.1379C53.8009 15.2933 53.8392 15.4459 53.8945 15.5925H55.4771C55.4041 15.4275 55.3573 15.252 55.3385 15.0724C55.3163 14.8437 55.3068 14.614 55.3099 14.3843V12.6354C55.3289 12.1547 55.2498 11.6753 55.0774 11.2264C55.0029 11.0559 54.8907 10.9046 54.7494 10.784C54.608 10.6633 54.4413 10.5765 54.2616 10.5302V10.5015C54.9442 10.2284 55.2841 9.57448 55.2814 8.53961V7.92525C55.3324 7.29869 55.1344 6.67731 54.7307 6.19683C54.4892 5.99122 54.2094 5.83575 53.9076 5.73944C53.6059 5.64312 53.2881 5.60786 52.9726 5.63571H50.6639V15.5925H52.2221L52.2343 11.3247ZM52.2343 7.05694H52.9441C53.0559 7.04769 53.1682 7.06471 53.2723 7.10666C53.3764 7.1486 53.4693 7.21432 53.5437 7.29859C53.6933 7.53031 53.7609 7.8059 53.7354 8.08089V8.85089C53.7659 9.14383 53.6827 9.43729 53.5029 9.67005C53.4085 9.75609 53.2975 9.8219 53.1769 9.86345C53.0563 9.905 52.9285 9.92141 52.8013 9.9117H52.2343V7.05694ZM57.5901 15.5925H59.1483V11.3534L61.0328 5.63571H59.5154L58.4548 9.29324H58.4263L57.3616 5.63571H55.7056L57.5901 11.3534V15.5925Z" fill="#131111"/>
<path d="M65.3117 0H5.79492V21.1055H66.9433V0H65.3117ZM65.3117 19.4713H7.38981V1.63831H65.3117V19.4713Z" fill="#131111"/>
<path d="M60.6693 20.8475C60.4325 20.8444 60.1995 20.787 59.9881 20.6796V24.3658H2.08668V6.52869H6.62253C6.51142 6.26257 6.46995 5.97232 6.50208 5.68556C6.53421 5.3988 6.63886 5.12507 6.80609 4.89038H0.455078V26H61.6157V20.6755C61.3126 20.7876 60.9923 20.8458 60.6693 20.8475Z" fill="#131111"/>
<path d="M7.71938 20.0776L1.72732 25.6437L0.577043 24.4887L6.5691 18.9226L7.71938 20.0776ZM6.94029 1.15916L1.63758 6.05771L0.487305 4.9027L5.79001 0.00415039L6.94029 1.15916Z" fill="#131111"/>
</g>
<defs>
<clipPath id="clip0_777_40401">
<rect width="66.5" height="26" fill="white" transform="translate(0.455078)"/>
</clipPath>
</defs>
</svg>
