<svg width="34" height="33" viewBox="0 0 34 33" fill="none" xmlns="http://www.w3.org/2000/svg">
<g clip-path="url(#clip0_3008_60783)">
<path d="M17.1993 -9.33499e-05C26.3147 -0.0278547 33.8553 7.51321 33.6902 16.8073C33.5355 25.5353 26.438 32.9935 17.1956 32.9999C7.99424 33.0067 0.698367 25.5408 0.693362 16.5192C0.688357 7.38214 8.07523 -9.33499e-05 17.1993 -9.33499e-05ZM17.1925 10.5888C16.5404 10.5888 15.9194 10.5806 15.2983 10.5906C14.275 10.607 13.2531 10.6461 12.2462 10.8537C11.4995 11.0075 10.7802 11.2341 10.1382 11.6601C9.00342 12.4133 8.54296 13.542 8.46744 14.8363C8.4092 15.833 8.43695 16.8355 8.45151 17.8354C8.48245 19.9894 8.61849 22.1366 8.9602 24.266C9.14902 25.442 9.41656 26.598 9.87019 27.7057C10.3284 28.8234 11.0373 29.705 12.1752 30.1824C12.5861 30.3548 13.0028 30.5228 13.4305 30.6438C14.9939 31.0862 16.5969 31.154 18.2085 31.0898C18.8086 31.0662 19.3983 30.9583 19.957 30.7253C21.2287 30.196 21.9121 29.1875 22.1374 27.8795C22.3735 26.5069 22.5773 25.1248 22.7016 23.7386C22.8685 21.8676 22.9495 19.9885 23.0596 18.1126C23.091 17.5778 23.096 17.0417 23.1142 16.4819H31.8424C31.8424 16.3286 31.8506 16.1998 31.8406 16.0723C31.8256 15.8762 31.8056 15.6796 31.7746 15.4853C31.5035 13.79 30.5111 12.6572 28.9914 11.9459C27.5354 11.2642 25.9725 11.0225 24.3937 10.855C23.9282 10.8054 23.4614 10.7695 22.9973 10.7271C22.9418 10.0814 22.8949 9.45468 22.833 8.82937C22.7002 7.48681 22.5373 6.14835 22.1988 4.83857C22.0582 4.29517 21.9008 3.75587 21.5445 3.3035C20.9548 2.5544 20.1367 2.21353 19.2327 2.07745C17.06 1.75069 14.9243 1.94138 12.8409 2.63905C11.4254 3.11327 10.4267 4.04168 9.95254 5.47298C9.72232 6.16883 9.55169 6.88471 9.36878 7.59513C9.28461 7.92189 9.23456 8.25776 9.16768 8.59817H14.0762C14.0844 8.55039 14.0912 8.52126 14.0939 8.49123C14.2345 7.0886 14.3765 5.68642 14.5143 4.28379C14.5416 4.00618 14.6572 3.78682 14.907 3.65894C15.5358 3.33763 16.1833 3.30532 16.8371 3.57429C17.0828 3.67532 17.1979 3.86055 17.197 4.14499C17.1888 6.20797 17.1925 8.27141 17.1925 10.3344C17.1925 10.409 17.1925 10.4837 17.1925 10.5893V10.5888ZM16.2147 16.5033C15.7792 16.5425 15.3383 16.5852 14.9161 16.6908C14.4247 16.8142 14.1103 17.1614 14.0007 17.6638C13.9542 17.8768 13.9156 18.0985 13.921 18.3146C13.9729 20.3216 14.0161 22.3296 14.1021 24.3352C14.1567 25.6058 14.2787 26.8742 14.3737 28.143C14.3997 28.4894 14.5571 28.7711 14.8542 28.9527C15.4234 29.3008 16.0331 29.3732 16.6628 29.1493C17.0591 29.0082 17.1925 28.7916 17.1925 28.3751C17.1925 24.5077 17.1925 20.6398 17.1925 16.7723V16.4974C16.848 16.4974 16.5291 16.4746 16.2147 16.5029V16.5033Z" fill="#EEEEE7"/>
</g>
<defs>
<clipPath id="clip0_3008_60783">
<rect width="33" height="33" fill="white" transform="translate(0.693359)"/>
</clipPath>
</defs>
</svg>
