<svg width="42" height="21" viewBox="0 0 42 21" fill="none" xmlns="http://www.w3.org/2000/svg">
<path d="M26.8779 20.5V6.55557C26.8779 3.29096 24.2218 0.633982 20.9563 0.633982H14.9517V20.5H18.4795V4.16278H20.9563C22.2782 4.16278 23.35 5.23463 23.35 6.55652V20.5H26.8779Z" fill="#EEEEE7"/>
<path d="M12.0014 14.5218V6.61219C12.0014 3.31078 9.32364 0.633982 6.02223 0.633982H0.0742188V20.5H6.02317C9.32458 20.5 12.0014 17.8232 12.0014 14.5218ZM8.47258 14.5718C8.47258 15.8975 7.39695 16.9721 6.07129 16.9721H3.60208V4.16278H6.07129C7.39695 4.16278 8.47258 5.23746 8.47258 6.56407V14.5718Z" fill="#EEEEE7"/>
<path d="M36.0207 0.5H35.9367C32.6721 0.5 30.0151 3.15604 30.0151 6.42065V20.5H33.5439V13.3933H38.4144V20.5H41.9423V6.42065C41.9423 3.15604 39.2863 0.5 36.0207 0.5ZM38.4144 10.0683H33.5439V6.42065C33.5439 5.10159 34.6177 4.02786 35.9367 4.02786H36.0207C37.3407 4.02786 38.4144 5.10159 38.4144 6.42065V10.0683Z" fill="#EEEEE7"/>
</svg>
