<svg width="132" height="21" viewBox="0 0 132 21" fill="none" xmlns="http://www.w3.org/2000/svg">
<path fill-rule="evenodd" clip-rule="evenodd" d="M1.98501 0.117293H0.0390625V16.6067H1.98501V11.3863C1.98501 9.7949 3.02947 7.05358 4.72408 6.54977C4.90468 6.49642 5.0913 6.46827 5.27942 6.46827C6.03192 6.46827 6.6008 6.79426 6.96952 7.44181C7.30814 8.03452 7.43155 8.81988 7.43155 9.49409V16.6067H9.33386V9.49409C9.33386 8.81395 9.16078 8.07898 8.8327 7.47885C8.11331 6.16302 6.77087 5.66958 5.31554 5.66958C4.04082 5.66958 2.9181 6.42678 2.23785 7.45366L1.98651 7.833V0.117293H1.98501V0.117293ZM50.0016 0.117293H48.0541V16.6067H50.0016V11.3863C50.0016 9.7949 51.046 7.05358 52.7407 6.54977C52.9213 6.49642 53.1079 6.46827 53.296 6.46827C54.0485 6.46827 54.6174 6.79426 54.9861 7.44181C55.3247 8.03452 55.4481 8.81988 55.4481 9.49409V16.6067H57.3504V9.49261C57.3504 8.81247 57.1774 8.0775 56.8493 7.47737C56.1299 6.16154 54.7874 5.6681 53.3321 5.6681C52.0574 5.6681 50.9347 6.4253 50.2544 7.45218L50.0031 7.833V0.117293H50.0016ZM79.0433 8.9888H77.6708L77.6738 9.11475C77.6768 9.27034 77.6647 9.42593 77.6497 9.58152C77.6151 9.95938 77.5534 10.3358 77.4646 10.7062C77.2223 11.7153 76.7798 12.6859 76.0935 13.4786L75.9731 13.6164L71.7592 7.16619L71.8886 7.09655C73.3319 6.31861 75.0069 5.14354 75.1273 3.3728C75.1499 3.0305 75.1213 2.67043 75.0506 2.33554C74.9377 1.80209 74.7059 1.30125 74.3252 0.901163C73.6886 0.231391 72.7961 0.0046766 71.8901 0.0046766H71.8811C71.6583 -0.0101414 71.416 0.0106038 71.1963 0.0402397C70.6966 0.10692 70.2015 0.261027 69.7681 0.520341C68.6544 1.18567 68.2736 2.32369 68.2736 3.55358C68.2736 4.32707 68.4422 5.07093 68.7492 5.78071C68.9749 6.30527 69.2699 6.78537 69.5815 7.26251L69.6642 7.38846L69.5273 7.45662C69.5032 7.46848 69.4791 7.48033 69.4565 7.49219C69.0743 7.68186 68.6965 7.87597 68.3308 8.09528C67.8432 8.38571 67.3767 8.71319 66.9553 9.09104C65.9605 9.9816 65.2953 11.0885 65.2953 12.4414C65.2953 13.5083 65.5978 14.5174 66.3819 15.282C67.5452 16.417 69.4159 16.6719 70.9826 16.6719C72.3657 16.6719 73.6795 16.3355 74.8775 15.6539L74.9708 15.6006L75.0446 15.6776C75.7007 16.3533 76.5315 16.789 77.4917 16.8127H77.6602C77.886 16.8127 78.1027 16.7919 78.3209 16.7312H78.3269C79.2916 16.5074 80.0396 15.9518 80.5754 15.1368L80.6311 15.0523L80.1224 14.5515L80.0351 14.6596C79.9538 14.7604 79.8635 14.8567 79.7732 14.9515C79.5821 15.1486 79.3774 15.3353 79.1532 15.4954C79.0087 15.5991 78.8537 15.6924 78.6881 15.7591C78.6279 15.7828 78.5662 15.8051 78.503 15.8199H78.5C78.3751 15.854 78.2442 15.8525 78.1177 15.8243C77.5248 15.6924 76.9168 15.0034 76.5736 14.5307L76.5059 14.4374L76.5872 14.3573C76.6609 14.2847 76.7316 14.2121 76.8024 14.1366C78.0304 12.8355 79.0433 10.9255 79.0433 9.1192V8.9888V8.9888ZM70.814 5.71996C70.3957 5.04871 70.1383 4.21446 70.1383 3.42614C70.1383 2.72673 70.2421 1.83766 70.7538 1.30866C71.0428 1.00933 71.4205 0.871527 71.8344 0.871527C71.8841 0.871527 71.9322 0.871527 71.9819 0.875972C72.0015 0.875972 72.021 0.878936 72.0406 0.878936C72.7013 0.878936 73.1137 1.25828 73.3499 1.83914C73.526 2.27479 73.5937 2.79193 73.5937 3.2587C73.5937 3.64693 73.4869 4.02182 73.3168 4.37005C73.055 4.90497 72.6456 5.38211 72.2077 5.78516C71.9714 6.00298 71.72 6.20747 71.4552 6.39121L71.3498 6.46382L71.2685 6.36454C71.1015 6.16154 70.9615 5.93927 70.814 5.72292V5.71996ZM70.1022 8.07305L74.3839 14.8048L74.2454 14.87C73.1874 15.3664 72.0015 15.5472 70.8366 15.5472C70.647 15.5472 70.4468 15.5176 70.2617 15.482C69.8644 15.405 69.4746 15.2672 69.1239 15.0671C67.932 14.3855 67.5136 13.1778 67.5136 11.8798C67.5136 10.9033 67.783 10.0616 68.4527 9.32961C68.8892 8.85099 69.434 8.47906 69.9863 8.14418L70.1022 8.07305V8.07305ZM43.0004 1.93397L41.0529 3.25277V5.87407H39.2078V6.79278H41.0529V12.7377C41.0529 13.9662 41.3374 15.2835 42.3939 16.0584C42.9522 16.4689 43.6611 16.6615 44.3519 16.6615C44.6243 16.6615 45.2308 16.6275 45.4415 16.4452L45.4851 16.4081V15.4642C45.3662 15.5709 45.2293 15.6554 45.0713 15.7117C44.8831 15.7784 44.7146 15.7902 44.5189 15.7962C44.1397 15.808 43.7845 15.6865 43.5166 15.4168C43.2683 15.1664 43.1313 14.8197 43.0606 14.4818C43.023 14.304 42.9959 14.1069 43.0019 13.9247V6.7913H46.0525V5.87259H43.0019V1.93397H43.0004ZM24.027 6.75425C24.021 7.43736 24.024 8.12047 24.0255 8.80358C24.1173 8.60946 24.2152 8.41831 24.322 8.23309C24.5056 7.91598 24.7178 7.61814 24.9932 7.37068C25.6012 6.82093 26.3899 6.63867 27.189 6.56755H27.195C27.2176 6.56755 27.2402 6.5631 27.2628 6.56162C27.323 6.55866 27.3832 6.55569 27.4434 6.55569C27.8061 6.55569 28.2034 6.61348 28.533 6.77055C28.9935 6.98986 29.2343 7.36179 29.2644 7.86264V8.4924L29.2328 8.52944C29.0838 8.70578 28.8881 8.90878 28.694 9.03474C28.2952 9.29257 27.8933 9.54003 27.4599 9.73414C27.0174 9.9327 26.5644 10.1061 26.1069 10.2646C25.1091 10.6099 23.8826 11.1448 23.2264 11.9924C22.808 12.5333 22.6966 13.0845 22.6966 13.7513C22.6966 14.4181 22.9058 15.1264 23.3498 15.6598C23.8765 16.2926 24.6591 16.5889 25.4613 16.703C25.532 16.7134 25.6028 16.7223 25.6735 16.7297L25.7517 16.7371C25.7999 16.7416 25.8466 16.746 25.8947 16.749C26.0422 16.7579 26.1882 16.7653 26.3357 16.7667H26.3763C26.5343 16.7682 26.6924 16.7564 26.8504 16.7401C27.6239 16.6601 28.3373 16.3815 28.9288 15.8821C29.2057 15.6495 29.4555 15.3664 29.6467 15.0612L29.7866 14.8374L29.8905 15.079C30.2426 15.9043 30.8853 16.5134 31.8379 16.5134C31.9222 16.5134 32.005 16.5074 32.0877 16.4971C32.1464 16.4896 32.2051 16.4778 32.2623 16.4645C32.2879 16.4585 32.315 16.4526 32.3406 16.4452H32.3421L32.3677 16.4378C32.3677 16.4378 32.3692 16.4378 32.3707 16.4363H32.3752L32.3797 16.4333C32.3797 16.4333 32.3842 16.4319 32.3872 16.4319H32.3902C32.5648 16.377 32.7891 16.2718 32.9215 16.1474L33.0058 16.0673L32.5603 15.5413L32.4986 15.4672C32.3466 15.6302 32.2172 15.6658 31.9252 15.6658H31.9237C31.7867 15.6658 31.6829 15.6361 31.5775 15.5472C31.3473 15.3531 31.2449 14.9619 31.1968 14.6759V14.667C31.1787 14.4877 31.1712 14.307 31.1712 14.1277V8.36348C31.1863 8.1827 31.1592 7.97081 31.12 7.79447C31.0282 7.37661 30.8311 6.9943 30.5376 6.68016C29.7821 5.86962 28.5721 5.6681 27.5066 5.6681C26.6472 5.6681 25.7879 5.83109 25.0038 6.17487C24.7705 6.27712 24.5432 6.39566 24.328 6.53347C24.2392 6.58977 24.1504 6.65053 24.0692 6.71721L24.027 6.75425V6.75425ZM24.6621 13.572C24.6621 13.5349 24.6651 13.4994 24.6667 13.4623L24.6742 13.372C24.7931 12.2917 25.7322 11.5938 26.6502 11.1478C26.9362 11.0085 27.2236 10.8751 27.5141 10.7432L27.7007 10.6588C28.2139 10.4261 28.7391 10.1846 29.1861 9.83935L29.4074 9.66746V13.2549L29.4028 13.2816C29.1079 14.5426 28.3494 15.7695 26.8985 15.8273C26.8534 15.8288 26.8098 15.8302 26.7646 15.8302C25.6193 15.8302 24.8698 15.1857 24.6952 14.0758C24.6727 13.9291 24.6606 13.7794 24.6591 13.6313V13.6283L24.6621 13.572V13.572ZM86.8572 17.5625V19.4873L86.8843 19.5214C86.9535 19.6073 87.0408 19.6874 87.1221 19.7615C87.3328 19.9526 87.5645 20.1215 87.8068 20.2682C88.6225 20.7631 89.5526 21.0002 90.5083 21.0002C94.1323 21.0002 96.1475 19.0369 96.1475 15.4642V5.85036H94.3626V7.24917L94.1203 6.96022C93.3512 6.04447 92.2977 5.6681 91.1073 5.6681C90.5098 5.6681 89.9198 5.78368 89.366 6.00298C88.3562 6.40307 87.5028 7.12767 86.9038 8.01822C86.2687 8.96361 85.9286 10.0764 85.9286 11.21C85.9286 12.2547 86.1769 13.2905 86.6916 14.2047C87.1657 15.0464 87.852 15.7606 88.7038 16.2377C89.4397 16.6497 90.2615 16.8631 91.1088 16.8631C91.8718 16.8631 92.6303 16.7253 93.2775 16.3074C93.6071 16.0955 93.881 15.8273 94.1187 15.5191L94.3656 15.199V15.8791C94.3656 17.2794 93.8193 18.696 92.5972 19.4903C92.0088 19.8741 91.33 20.0608 90.6257 20.0608C89.6233 20.0608 88.7264 19.6948 87.9814 19.0413C87.6684 18.7657 87.411 18.4753 87.1868 18.127C87.0664 17.9463 86.9595 17.7551 86.8572 17.5625V17.5625ZM91.1043 6.54977C93.3046 6.54977 93.9562 8.98436 94.051 10.7314C94.06 10.9092 94.0661 11.087 94.0661 11.2648C94.0661 12.6829 93.744 14.7115 92.4693 15.5783C92.0614 15.8554 91.5994 15.9799 91.1058 15.9799C89.7754 15.9799 89.0409 15.0656 88.6511 13.9113C88.3712 13.0815 88.2628 12.1376 88.2628 11.2648C88.2628 9.84972 88.5744 7.73224 89.8807 6.89502C90.2494 6.65794 90.6633 6.54977 91.1043 6.54977V6.54977ZM126.468 16.6067H126.751L131.039 5.83999H130.07L127.022 13.575L123.436 5.91111L123.403 5.8385H122.646L119.147 13.4312L116.179 5.8385H114.228L118.49 16.6052H118.773L122.632 8.31162L126.468 16.6067V16.6067ZM108.378 5.6681C107.587 5.6681 106.815 5.85925 106.115 6.22377C104.259 7.18694 103.191 9.16662 103.191 11.2056C103.191 13.0193 103.949 14.7915 105.481 15.854C106.335 16.4452 107.336 16.743 108.378 16.743C109.492 16.743 110.562 16.42 111.453 15.7547C112.898 14.6759 113.566 12.9556 113.566 11.2041C113.566 9.4526 112.809 7.61962 111.277 6.55866C110.424 5.96594 109.421 5.6681 108.378 5.6681V5.6681ZM108.378 6.54977C108.797 6.54977 109.202 6.63423 109.573 6.82538C110.218 7.15582 110.645 7.74557 110.919 8.39312C111.286 9.26293 111.399 10.2691 111.399 11.2041C111.399 12.1391 111.286 13.1467 110.919 14.0165C110.645 14.6656 110.218 15.2538 109.573 15.5843C109.202 15.7754 108.797 15.8599 108.38 15.8599C106.166 15.8599 105.477 13.5201 105.375 11.7405C105.364 11.5612 105.359 11.3834 105.359 11.2041C105.359 9.99346 105.557 8.56501 106.327 7.5811C106.831 6.938 107.545 6.54977 108.378 6.54977V6.54977ZM21.2022 11.1804V11.0559C21.2022 10.9729 21.1962 10.8899 21.1901 10.8084C21.1751 10.6025 21.151 10.3965 21.1194 10.192C21.0216 9.56226 20.853 8.93249 20.5957 8.34718C19.8387 6.62534 18.4827 5.6681 16.5578 5.6681C14.6329 5.6681 13.1926 6.33491 12.3002 7.96488C11.7689 8.93546 11.5387 10.1327 11.5387 11.2293C11.5387 12.3895 11.787 13.6253 12.4191 14.6181C13.4364 16.2185 15.1536 16.7667 16.9927 16.7667C17.9063 16.7667 18.7852 16.5252 19.5527 16.0333C19.7845 15.8851 20.0027 15.7147 20.2014 15.525C20.2796 15.4509 20.3609 15.3694 20.4256 15.2849L20.4512 15.2523V13.2905C20.0719 13.9854 19.6204 14.6759 18.9959 15.1575C18.3743 15.6361 17.6685 15.8406 16.8844 15.8406C16.2267 15.8406 15.5901 15.6836 15.0438 15.3131C13.8518 14.507 13.4816 12.9926 13.4741 11.6471L13.4711 11.1819H21.2022V11.1804ZM13.4876 10.1016C13.5629 9.03029 13.8654 7.85671 14.7488 7.14989C15.259 6.74092 15.9031 6.5468 16.5563 6.5468C17.1011 6.5468 17.6323 6.76018 18.0387 7.11285C18.8694 7.83448 19.1599 9.05548 19.2517 10.1001L19.2653 10.2468H13.4786L13.4876 10.1016V10.1016ZM98.9422 16.6052H100.888V0.117293H98.9422V16.6067V16.6052ZM35.0661 16.6052H37.0105V0.117293H35.0661V16.6067V16.6052Z" fill="#EEEEE7"/>
</svg>
