<svg width="114" height="13" viewBox="0 0 114 13" fill="none" xmlns="http://www.w3.org/2000/svg">
<path d="M80.5134 1.44496C83.5368 -0.861031 87.7268 -0.217372 89.8793 2.17998C92.1115 4.66598 92.0065 8.47475 89.8793 10.8271C87.619 13.3254 83.4234 13.789 80.5176 11.5649C78.8973 12.7854 77.0558 13.2163 75.0448 12.8985C73.3531 12.6313 71.9485 11.8376 70.8954 10.5066C68.8886 7.97019 69.1169 4.19278 71.3603 1.96452C73.7284 -0.387832 77.7784 -0.670115 80.5148 1.44496H80.5134ZM79.4309 2.53591C79.4225 2.52636 79.4169 2.51409 79.407 2.50591C79.3818 2.48409 79.3552 2.46363 79.3286 2.44454C78.2321 1.66178 77.0082 1.34814 75.6582 1.48996C74.1611 1.64678 72.961 2.31226 72.0885 3.50276C71.2147 4.69462 70.9696 6.03648 71.2217 7.46699C71.4443 8.73521 72.0745 9.77843 73.1304 10.5571C74.3544 11.4599 75.7408 11.7108 77.2364 11.4626C79.4309 11.0985 81.2402 9.17023 81.3368 6.73742C81.369 5.91921 81.2262 5.12963 80.8929 4.37415C80.8705 4.32233 80.8635 4.24187 80.8887 4.19551C81.1464 3.7264 81.5006 3.33366 81.9516 2.97638C83.387 5.56328 83.2974 8.05746 81.6197 10.4944C81.6463 10.5162 81.6715 10.5394 81.6967 10.5585C82.8338 11.3808 84.111 11.6767 85.5072 11.5062C86.9146 11.333 88.0559 10.6921 88.8934 9.5807C89.7644 8.42702 90.0571 7.1247 89.8457 5.71193C89.6482 4.38779 89.0278 3.29139 87.9355 2.47454C86.7396 1.58133 85.3784 1.29359 83.8995 1.53496C82.5244 1.75861 81.411 2.42136 80.6324 3.54776C79.5723 5.08463 79.4295 6.74014 80.0778 8.47066C80.1058 8.54566 80.1128 8.65476 80.0778 8.72021C79.8258 9.18659 79.4743 9.57661 79.0611 9.91753C77.7728 7.94428 77.6411 4.8378 79.4323 2.53727L79.4309 2.53591Z" fill="#EEEEE7"/>
<path d="M60.0826 12.6695H58.5716V10.9035C58.2621 11.194 57.9876 11.4871 57.6767 11.7394C56.8771 12.3872 55.95 12.7704 54.9221 12.919C53.2164 13.1658 51.6606 12.8113 50.2868 11.7899C49.1174 10.9199 48.4032 9.74845 48.0699 8.3684C47.6764 6.73607 47.745 5.11738 48.4102 3.55596C49.1664 1.78181 50.4996 0.619952 52.4322 0.190392C54.3003 -0.224168 56.0662 0.0226588 57.6291 1.1777C57.9582 1.42043 58.2425 1.72045 58.5589 2.00546V0.184937H60.0826V12.6695ZM58.6626 6.39924C58.6052 5.96014 58.5701 5.51694 58.4861 5.08329C57.9904 2.54547 55.5271 1.09042 53.1912 1.53362C51.6129 1.83363 50.494 2.71593 49.8708 4.1478C49.2337 5.6124 49.2701 7.11109 49.8316 8.58932C50.5178 10.3935 52.0709 11.6072 54.1729 11.5485C55.5803 11.509 56.7104 10.958 57.5423 9.85755C58.3167 8.83478 58.6122 7.65793 58.6612 6.39788L58.6626 6.39924Z" fill="#EEEEE7"/>
<path d="M24.3097 12.664H22.821V10.8667C22.7398 10.9458 22.6936 10.9839 22.6558 11.0289C21.88 11.9371 20.8997 12.5426 19.7233 12.8045C17.3539 13.3336 15.3023 12.7649 13.6638 10.9867C12.8628 10.118 12.4174 9.06932 12.2158 7.91973C11.9581 6.44968 12.0449 5.00554 12.6233 3.61731C13.3739 1.81588 14.7085 0.632207 16.6663 0.191737C18.4378 -0.207822 20.1309 -0.0032698 21.6545 1.02768C22.0634 1.3045 22.4163 1.66179 22.8014 1.98635V0.190373H24.3111V12.664H24.3097ZM13.6344 6.39104C13.689 6.82333 13.717 7.26108 13.8038 7.68791C13.9957 8.6384 14.399 9.49888 15.0824 10.2148C15.9787 11.153 17.0962 11.5785 18.4084 11.5485C19.9138 11.513 21.0971 10.8953 21.915 9.67071C22.8364 8.29066 23.0381 6.76742 22.7454 5.16782C22.2833 2.63 19.9334 1.21314 17.7152 1.49133C16.361 1.66179 15.2967 2.29045 14.5306 3.38685C13.8991 4.28961 13.661 5.30692 13.6344 6.39241V6.39104Z" fill="#EEEEE7"/>
<path d="M0.729492 0.0117254C2.21812 0.0117254 3.66194 -0.00327516 5.10435 0.0171801C5.9628 0.0294533 6.80865 0.156276 7.62088 0.450832C9.25655 1.04403 10.3363 2.13225 10.6626 3.82322C11.0015 5.57692 10.6023 7.14379 9.20334 8.37793C8.48073 9.01477 7.59987 9.36796 6.6504 9.52888C6.04683 9.63115 5.42785 9.67343 4.81447 9.69525C4.01764 9.72252 3.21801 9.70206 2.37917 9.70206V12.4594H0.729492V0.0117254ZM2.39597 8.20747C3.22221 8.20747 4.02744 8.2211 4.83128 8.20201C5.30461 8.1911 5.78215 8.15837 6.24708 8.07655C6.97669 7.94837 7.64469 7.66199 8.16704 7.12879C8.92186 6.35967 9.16973 5.42419 9.03949 4.38915C8.90225 3.30229 8.33509 2.49499 7.32259 1.99725C6.60139 1.64269 5.82556 1.52132 5.03013 1.50632C4.2249 1.49132 3.41827 1.5036 2.61304 1.5036C2.54302 1.5036 2.47159 1.5036 2.39597 1.5036V8.20747Z" fill="#EEEEE7"/>
<path d="M93.7821 2.02041C94.0257 1.7954 94.2428 1.58539 94.4711 1.38493C95.2259 0.722178 96.1137 0.314437 97.1052 0.131703C98.3824 -0.102851 99.6385 -0.0183022 100.848 0.469897C102.403 1.09719 103.435 2.21678 104.033 3.73183C104.345 4.52413 104.506 5.34643 104.509 6.19328C104.516 8.22653 104.512 10.2598 104.512 12.293C104.512 12.3449 104.506 12.3953 104.502 12.458H102.937C102.937 12.3735 102.937 12.2971 102.937 12.2208C102.937 10.1943 102.951 8.16653 102.931 6.14009C102.921 5.08188 102.626 4.0932 101.969 3.23136C101.204 2.22769 100.179 1.65085 98.9033 1.48993C96.7257 1.21447 94.4431 2.53997 93.8955 4.97414C93.7919 5.43507 93.7526 5.91781 93.7512 6.38965C93.7512 8.33153 93.7751 10.2734 93.7905 12.2153C93.7905 12.293 93.7905 12.3694 93.7905 12.4594H92.2822V0.0198809H93.7821V2.02041Z" fill="#EEEEE7"/>
<path d="M27.6931 12.4649H26.1807V0.0185475H27.6875V2.02725C27.7449 1.97953 27.7757 1.96043 27.7981 1.93452C28.7644 0.866759 29.9674 0.244919 31.421 0.0703675C32.7738 -0.0919109 34.0677 0.081277 35.2721 0.714026C36.7803 1.50633 37.6808 2.76637 38.1359 4.34961C38.3488 5.08873 38.4216 5.84557 38.4202 6.61196C38.416 8.48293 38.4188 10.3525 38.4188 12.2235V12.4622H36.8405V12.2344C36.8405 10.2598 36.8475 8.28384 36.8377 6.30922C36.8321 5.4051 36.6529 4.53234 36.1936 3.73595C35.4443 2.43636 34.3086 1.68361 32.7878 1.49133C30.5247 1.20632 28.2 2.65319 27.7393 5.19509C27.6287 5.80466 27.6245 6.41423 27.6343 7.02925C27.6609 8.79522 27.6791 10.5598 27.7001 12.3258C27.7001 12.3653 27.6959 12.4035 27.6931 12.4635V12.4649Z" fill="#EEEEE7"/>
<path d="M106.712 9.08839C106.821 9.56295 107.002 9.99251 107.281 10.3825C108.18 11.6426 110.033 11.9085 111.178 11.0753C111.709 10.6894 112.009 10.1671 112.122 9.53704C112.199 9.11293 112.192 8.69155 112.034 8.28518C111.836 7.77789 111.425 7.46287 110.953 7.22559C110.443 6.96922 109.914 6.74558 109.388 6.51921C108.704 6.22465 107.999 5.96009 107.411 5.49235C106.571 4.82551 106.203 3.97184 106.308 2.90544C106.443 1.52949 107.429 0.381264 108.849 0.108527C110.307 -0.172392 111.594 0.133073 112.559 1.31266C112.768 1.56767 112.91 1.8745 113.094 2.17587C112.632 2.42133 112.21 2.64498 111.804 2.86044C111.64 2.61361 111.503 2.35861 111.322 2.13769C110.631 1.2922 109.058 1.18038 108.299 2.0586C107.718 2.73225 107.564 3.94593 108.648 4.53368C109.199 4.83233 109.795 5.06006 110.38 5.29598C111.084 5.57963 111.804 5.82918 112.412 6.29692C113.16 6.8724 113.632 7.59379 113.709 8.54291C113.791 9.56022 113.637 10.523 113.036 11.3766C112.415 12.2576 111.524 12.7294 110.457 12.9176C109.549 13.0772 108.666 13.0008 107.82 12.6531C106.457 12.0926 105.654 11.0616 105.288 9.68704C105.274 9.63386 105.313 9.51931 105.354 9.50567C105.801 9.35839 106.253 9.22475 106.714 9.08429L106.712 9.08839Z" fill="#EEEEE7"/>
<path d="M44.2232 12.4635H42.5749V1.51175H38.1118V0.0226078H48.6863V1.49948H44.2246V12.4635H44.2232Z" fill="#EEEEE7"/>
<path d="M61.9385 12.458V0.0226078H63.6064V10.9675H70.3647V12.458H61.9385Z" fill="#EEEEE7"/>
</svg>
