<svg width="62" height="21" viewBox="0 0 62 21" fill="none" xmlns="http://www.w3.org/2000/svg">
<path d="M8.11597 8.32698C7.68897 8.20308 7.2518 8.13636 6.80447 8.13636C4.40513 8.13636 4.0798 10.3284 4.0798 12.2155V16.5997H0.348633V4.42889H4.08997V6.15396H4.1408C4.79147 5.42009 5.99113 4.41935 7.24163 4.39076C7.8313 4.38123 8.42097 4.46701 8.98013 4.64809L8.11597 8.32698ZM13.0061 11.0718C13.0061 12.6063 13.6466 14.3409 15.5986 14.3409C16.8288 14.3409 17.6015 13.6452 18.1098 12.6826L21.5563 13.2067C20.6515 15.6371 18.3538 17 15.6088 17C11.5523 17 9.07163 14.3218 9.07163 10.6239C9.07163 6.92595 11.1761 4.02859 15.4156 4.02859C19.6551 4.02859 21.6376 6.98314 21.6376 10.6525V11.0718H13.0061ZM18.0996 8.91789C17.9166 7.67889 17.0626 6.45894 15.619 6.45894C14.1753 6.45894 13.301 7.65029 13.1078 8.91789H18.0996ZM22.9593 4.34311H26.7006V16.5235H22.9593V4.34311ZM32.2313 5.5154H32.2821C32.9938 4.55279 34.285 4.02859 35.4846 4.02859C37.1113 4.02859 38.25 4.57185 39.1955 5.8585C40.0393 4.75293 41.544 4.02859 43.069 4.02859C46.4036 4.02859 47.2271 6.36364 47.2271 9.0132V16.5997H43.496V10.2045C43.496 9.0132 43.5773 6.81158 41.7371 6.81158C39.7038 6.81158 39.7343 9.36584 39.7343 10.6334V16.5997H36.0031V10.4238C36.0031 9.23241 36.1658 6.80205 34.2138 6.80205C32.1296 6.80205 32.2415 9.32771 32.2415 10.6239V16.5997H28.5001V4.42889H32.2415V5.5154H32.2313ZM61.3486 16.5711H57.6683V15.456H57.6175C56.8346 16.4282 55.5943 16.9905 54.293 16.9714C50.45 16.9714 48.2641 13.7214 48.2641 10.4238C48.2641 7.1261 50.4805 4 54.2421 4C55.6045 4 56.7635 4.54326 57.6683 5.53446V4.39076H61.3486V16.5711ZM57.9326 10.4714C57.9326 8.83211 56.8448 7.07845 54.9233 7.07845C53.0018 7.07845 51.9343 8.84164 51.9343 10.4714C51.9343 12.1012 52.9916 13.893 54.9131 13.893C56.8346 13.893 57.9225 12.1107 57.9326 10.4714Z" fill="#EEEEE7"/>
</svg>
