<svg width="64" height="25" viewBox="0 0 64 25" fill="none" xmlns="http://www.w3.org/2000/svg">
<path d="M38.0818 8.82556H34.2482V19.6919H31.8159V8.82556H27.9458V6.71147H38.0818V8.82556Z" fill="#EEEEE7"/>
<path d="M45.3795 15.7053H38.5794C38.8187 17.0778 39.7959 17.9861 41.049 17.9861C41.9889 17.9861 42.7442 17.5594 43.2055 16.8553L45.0118 17.9494C44.09 19.1919 42.5794 19.9335 41.0498 19.9335C38.5255 19.9335 36.3325 17.9128 36.3325 15.0195C36.3325 12.1263 38.5073 10.1247 40.9396 10.1247C44.1265 10.1247 45.6925 12.6829 45.3795 15.7053ZM38.6531 13.9804H43.1865C42.9099 12.7754 42.1364 12.0146 40.938 12.0146C39.8142 12.0146 38.9661 12.7938 38.6531 13.9804Z" fill="#EEEEE7"/>
<path d="M50.2079 19.7285C49.8576 19.8027 49.4891 19.821 49.1578 19.821C47.5362 19.821 46.8174 19.0419 46.8174 17.4661V6.71147H49.0841V17.1511C49.0841 17.9486 49.5636 18.0594 50.2079 17.9853V19.7285Z" fill="#EEEEE7"/>
<path d="M51.3872 7.78726C51.3872 7.06396 52.0141 6.47064 52.7322 6.47064C53.4502 6.47064 54.0589 7.06396 54.0589 7.78726C54.0589 8.51057 53.432 9.10389 52.7322 9.10389C52.0324 9.10389 51.3872 8.51057 51.3872 7.78726ZM51.5901 19.6919V10.4205H53.8568V19.6919H51.5901Z" fill="#EEEEE7"/>
<path d="M63.384 13.1279V19.6919H61.2647V18.6161C60.5459 19.5619 59.403 19.9144 58.4448 19.9144C56.4547 19.9144 55.2754 18.6536 55.2754 17.077C55.2754 15.2787 57.2845 13.8137 59.7351 13.8137C60.2146 13.8137 60.7306 13.8512 61.191 13.9996V13.3879C61.191 12.4604 60.6569 11.9788 59.5695 11.9788C58.5931 11.9788 57.7268 12.4796 57.1926 13.1288L55.5893 11.9421C56.492 10.8855 58.0407 10.1439 59.6067 10.1439C62.0573 10.1422 63.384 11.218 63.384 13.1279ZM61.191 16.1128V15.7045C60.8225 15.5745 60.4357 15.5378 59.9562 15.5378C58.2974 15.5378 57.4502 16.2053 57.4502 17.0211C57.4502 17.6886 58.0216 18.1153 58.8879 18.1153C60.0299 18.1153 61.191 17.4294 61.191 16.1128Z" fill="#EEEEE7"/>
<path d="M16.6461 17.5652C19.8677 15.6853 22.7696 12.4971 23.6847 10.2238C23.9448 8.34222 23.9978 8.10473 24.0293 6.0348C24.0334 5.74814 24.016 5.47315 23.9895 5.20983C23.8015 8.24973 19.8967 12.0721 14.7305 14.5695C8.49851 17.5819 3.82347 18.3927 1.7373 16.0953C2.46196 17.5352 2.93733 18.2344 3.75225 19.3027C6.15892 21.4476 11.224 20.7301 16.6461 17.5652Z" fill="#EEEEE7"/>
<path d="M14.0044 12.4154C19.8828 9.56218 23.9773 5.50315 23.2634 2.81241C22.0915 0.775807 19.7196 0 17.1763 0C9.63746 0 0.384277 4.99983 0.384277 11.3788C0.384277 12.1988 0.563991 13.1154 0.886151 14.0762C2.60544 16.372 7.86269 15.3962 14.0044 12.4154Z" fill="#EEEEE7"/>
<path d="M13.5082 21.4568C9.37398 23.1434 7.00789 22.6059 5.7002 21.5543L5.68115 21.5393C7.70521 23.5709 10.0125 25 12.0357 25C15.5787 25 20.4293 20.6751 22.725 13.9687C21.4314 16.3895 18.6553 19.3635 13.5082 21.4568Z" fill="#EEEEE7"/>
</svg>
