<svg width="64" height="21" viewBox="0 0 64 21" fill="none" xmlns="http://www.w3.org/2000/svg">
<path d="M43.4143 5.30069H47.3486L40.5648 20.4709H36.4955L38.7339 15.6334L34.1885 5.30069H38.3928L40.8348 11.5641L43.4118 5.30069H43.4143Z" fill="#EEEEE7"/>
<path d="M14.0343 0.529085H0.287598V3.89888H5.05882V16.47H9.26311V3.89888H14.0343V0.529085Z" fill="#EEEEE7"/>
<path d="M20.3198 5.11837C19.4755 5.16255 18.7589 5.3638 18.1723 5.71721C17.5833 6.07067 17.1611 6.58853 16.9059 7.26589V5.34417H13.0845V16.4672H17.1096V10.8836C17.1096 10.1915 17.2838 9.65643 17.6299 9.27848C17.9759 8.90296 18.5871 8.66735 19.4608 8.57652L21.655 8.35072L21.4292 5.02756L20.3223 5.11837H20.3198Z" fill="#EEEEE7"/>
<path d="M63.9998 12.3539H59.8174V16.4698H63.9998V12.3539Z" fill="#EEEEE7"/>
<path d="M54.766 6.10813C54.7148 6.06886 54.6631 6.0296 54.6089 5.99282C53.9514 5.54121 53.1343 5.25895 52.2357 5.2614C52.1816 5.2614 52.1304 5.2614 52.0787 5.26386C51.2713 5.29331 50.5153 5.46755 49.8401 5.77189C48.8292 6.22594 48.0045 6.96716 47.4449 7.89243C46.8829 8.81774 46.5859 9.91974 46.5859 11.0978C46.5859 12.6686 47.1136 14.1264 48.0855 15.1965C48.569 15.7316 49.1655 16.1685 49.8455 16.4679C50.525 16.7673 51.2909 16.9293 52.1079 16.9293C52.7635 16.9293 53.3626 16.782 53.8704 16.5194C54.2089 16.3476 54.5035 16.1292 54.7635 15.8837V16.7722H57.8635V5.42091H54.7635V6.11062L54.766 6.10813ZM54.6631 12.2587C54.5748 12.5213 54.4596 12.7594 54.3172 12.9655C54.1035 13.2773 53.8362 13.5202 53.5094 13.692C53.1831 13.8638 52.7904 13.9669 52.3045 13.9694C51.8723 13.9694 51.507 13.8859 51.1928 13.746C50.724 13.535 50.3582 13.1914 50.0957 12.7373C49.8353 12.2833 49.6855 11.7188 49.6855 11.0978C49.6855 10.6855 49.7518 10.2953 49.8748 9.94672C50.0587 9.42394 50.3606 8.99935 50.7582 8.70482C51.1582 8.41033 51.6567 8.22867 52.3045 8.22623C52.7367 8.22623 53.0948 8.30969 53.3992 8.44711C53.6274 8.55023 53.826 8.68765 54.0006 8.85452C54.2631 9.10486 54.4718 9.42394 54.6192 9.80682C54.7635 10.1873 54.8445 10.6266 54.8445 11.0978C54.8445 11.5151 54.7811 11.9102 54.6655 12.2587H54.6631Z" fill="#EEEEE7"/>
<path d="M30.0709 6.10813C30.0194 6.06886 29.9678 6.0296 29.9138 5.99282C29.2561 5.54121 28.4388 5.25895 27.5405 5.2614C27.4865 5.2614 27.435 5.2614 27.3835 5.26386C26.5759 5.29331 25.82 5.46755 25.1451 5.77189C24.1339 6.22594 23.3093 6.96716 22.7497 7.89243C22.1876 8.81774 21.8906 9.91974 21.8906 11.0978C21.8906 12.6686 22.4183 14.1264 23.3902 15.1965C23.8737 15.7316 24.4701 16.1685 25.15 16.4679C25.8298 16.7673 26.5956 16.9293 27.4129 16.9293C28.0682 16.9293 28.6671 16.782 29.1751 16.5194C29.5138 16.3476 29.8083 16.1292 30.0685 15.8837V16.7722H33.1683V5.42091H30.0685V6.11062L30.0709 6.10813ZM29.9678 12.2587C29.8795 12.5213 29.7641 12.7594 29.6218 12.9655C29.4082 13.2773 29.1407 13.5202 28.8143 13.692C28.4879 13.8638 28.0952 13.9669 27.6092 13.9694C27.1773 13.9694 26.8116 13.8859 26.4974 13.746C26.0286 13.535 25.663 13.1914 25.4003 12.7373C25.1402 12.2833 24.9905 11.7188 24.9905 11.0978C24.9905 10.6855 25.0567 10.2953 25.1795 9.94672C25.3635 9.42394 25.6654 8.99935 26.063 8.70482C26.4631 8.41033 26.9613 8.22867 27.6092 8.22623C28.0412 8.22623 28.3995 8.30969 28.7038 8.44711C28.9321 8.55023 29.1309 8.68765 29.3052 8.85452C29.5678 9.10486 29.7764 9.42394 29.9236 9.80682C30.0685 10.1873 30.1495 10.6266 30.1495 11.0978C30.1495 11.5151 30.0857 11.9102 29.9703 12.2587H29.9678Z" fill="#EEEEE7"/>
</svg>
