<svg width="65" height="19" viewBox="0 0 65 19" fill="none" xmlns="http://www.w3.org/2000/svg">
<path fill-rule="evenodd" clip-rule="evenodd" d="M57.7767 15.431H52.2766C49.1812 15.431 48.912 12.7428 48.912 11.9258C48.912 11.1089 49.1901 8.4207 52.2766 8.4207H57.7767C60.8722 8.4207 61.1413 11.1089 61.1413 11.9258C61.1413 12.7428 60.8632 15.431 57.7767 15.431ZM57.7767 5.47599H52.2766C46.5612 5.47599 46.0498 10.425 46.0498 11.9353C46.0498 13.4457 46.5612 18.3947 52.2766 18.3947H57.7767C63.4921 18.3947 64.0035 13.4457 64.0035 11.9353C64.0035 10.425 63.4921 5.47599 57.7767 5.47599Z" fill="#EEEEE7"/>
<path fill-rule="evenodd" clip-rule="evenodd" d="M44.9554 5.77042H43.1699C42.4072 5.77042 42.2457 5.91291 41.9586 6.36886C41.6625 6.83432 36.5662 15.07 36.5662 15.07C36.4047 15.3265 36.2342 15.4215 36.0189 15.4215C35.8035 15.4215 35.6331 15.317 35.4716 15.07C35.4716 15.07 30.3752 6.83432 30.0792 6.36886C29.7831 5.90341 29.6305 5.77042 28.8679 5.77042H27.0824C26.6696 5.77042 26.4812 6.11239 26.7414 6.52085C27.0016 6.93881 32.8337 16.3049 32.8337 16.3049C33.7758 17.7772 34.4756 18.3757 36.0278 18.3757C37.5801 18.3757 38.2709 17.7772 39.222 16.3049C39.222 16.3049 45.0541 6.92931 45.3143 6.52085C45.5745 6.10289 45.386 5.77042 44.9733 5.77042" fill="#EEEEE7"/>
<path fill-rule="evenodd" clip-rule="evenodd" d="M21.2861 6.57787C21.2861 6.00792 21.5015 5.77995 22.0398 5.77995H23.3857C23.924 5.77995 24.1394 6.00792 24.1394 6.57787V17.5873C24.1394 18.1572 23.924 18.3852 23.3857 18.3852H22.0398C21.5015 18.3852 21.2861 18.1572 21.2861 17.5873V6.57787Z" fill="#EEEEE7"/>
<path fill-rule="evenodd" clip-rule="evenodd" d="M18.3518 5.77042H16.5663C15.8037 5.77042 15.6422 5.91291 15.3551 6.36886C15.059 6.83432 9.96267 15.07 9.96267 15.07C9.80117 15.3265 9.63069 15.4215 9.41535 15.4215C9.20002 15.4215 9.02954 15.317 8.86804 15.07C8.86804 15.07 3.77173 6.83432 3.47564 6.36886C3.17955 5.90341 3.02702 5.77042 2.26437 5.77042H0.469889C0.0122975 5.77042 -0.131261 6.11239 0.128938 6.52085C0.389138 6.93881 6.22119 16.3049 6.22119 16.3049C7.16329 17.7772 7.86313 18.3757 9.41535 18.3757C10.9676 18.3757 11.6584 17.7772 12.6095 16.3049C12.6095 16.3049 18.4416 6.92931 18.7018 6.52085C18.962 6.10289 18.8184 5.77042 18.3608 5.77042" fill="#EEEEE7"/>
<path fill-rule="evenodd" clip-rule="evenodd" d="M21.1598 3.25318C20.7202 2.78773 20.7202 2.41727 21.1598 1.95181L22.1019 0.954414C22.5416 0.48896 22.8915 0.48896 23.3311 0.954414L24.2732 1.95181C24.7129 2.41727 24.7129 2.78773 24.2732 3.25318L23.3311 4.25059C22.8915 4.71604 22.5416 4.71604 22.1019 4.25059L21.1598 3.25318Z" fill="#EEEEE7"/>
</svg>
