<svg width="130" height="32" viewBox="0 0 130 32" fill="none" xmlns="http://www.w3.org/2000/svg">
<g clip-path="url(#clip0_2738_128027)">
<path d="M60.4388 7.19576C55.5885 7.19576 51.9785 10.8396 51.9785 15.6658C51.9785 20.4919 55.5885 24.1406 60.4388 24.1406C62.7114 24.1406 64.7901 23.3121 66.3746 21.8051C68.027 20.24 68.9331 18.074 68.9331 15.6609C68.9331 10.8299 65.3086 7.19092 60.4388 7.19092V7.19576ZM60.4388 20.6034C59.1838 20.6034 58.0209 20.114 57.1633 19.2224C56.2862 18.3114 55.8501 17.0661 55.8501 15.6609C55.8501 14.2557 56.3347 13.0298 57.2117 12.1188C58.0742 11.2224 59.1887 10.7282 60.4388 10.7282C63.0554 10.7282 65.0615 12.8941 65.0615 15.6609C65.0615 18.4277 63.0991 20.5985 60.4388 20.5985V20.6034Z" fill="#121112"/>
<path d="M100.206 18.7571L96.8968 7.42822H93.2433L89.9289 18.7862H89.769L89.7642 18.7571L86.915 7.42822H82.9707L88.0391 23.9079H91.5958L95.0119 12.5693H95.1669L95.1718 12.5936L98.5152 23.9079H102.101L107.135 7.42822H103.196L100.371 18.7765L100.211 18.7813L100.206 18.7571Z" fill="#121112"/>
<path d="M108.249 7.42818H112.14V23.9079H108.249V7.42818ZM110.163 0.0581055C108.811 0.0581055 107.789 1.06598 107.789 2.40335C107.789 3.74072 108.811 4.77767 110.163 4.77767C111.515 4.77767 112.601 3.75526 112.601 2.40335C112.601 1.05144 111.554 0.0581055 110.163 0.0581055Z" fill="#121112"/>
<path d="M129.57 0.634766H125.679V23.9079H129.57V0.634766Z" fill="#121112"/>
<path d="M123.174 7.22466C123.111 7.22466 123.048 7.2295 122.975 7.23435C120.015 7.36033 118.76 9.66681 118.629 9.92847L118.614 9.9527L118.479 9.91393L118.464 9.8994V7.42817H114.573V23.9079H118.464V15.3797C118.464 12.6662 120.087 10.98 122.719 10.98C123.198 10.98 123.571 11.0139 124.071 11.1059V7.23435C123.639 7.19558 123.421 7.21012 123.179 7.22466H123.174Z" fill="#121112"/>
<path d="M46.3527 9.68115C45.1268 8.08212 43.2225 7.20508 40.9935 7.20508C38.7646 7.20508 36.8748 8.02398 35.4163 9.50671C33.8609 11.0864 33.042 13.2329 33.042 15.7236C33.042 20.5982 36.4775 24.1306 41.0323 24.1306C42.8009 24.1306 45.1316 23.3359 46.3527 21.5527L46.3672 21.5334L46.5175 21.577V21.6012C46.5175 26.0736 44.8167 28.1233 41.323 28.1233C39.4817 28.1233 37.8245 26.9313 37.0929 25.0852L33.6574 26.6212C34.2776 28.0167 35.3582 29.2765 36.7052 30.1778C38.0765 31.0936 39.6126 31.5782 41.1486 31.5782C41.197 31.5782 41.2504 31.5782 41.2988 31.5782C44.2885 31.5152 46.595 30.5509 48.1553 28.7096C49.7252 26.8586 50.4133 24.368 50.4133 20.7484V7.42797H46.5175V9.65208L46.3672 9.69569L46.3527 9.67631V9.68115ZM41.6138 20.4625C40.3733 20.4625 39.2104 19.9489 38.3333 19.0185C37.4563 18.0833 36.9717 16.9737 36.9717 15.6315C36.9717 12.9034 39.0117 10.7617 41.6138 10.7617C43.9106 10.7617 46.3915 12.6224 46.3915 15.6315C46.3915 18.4225 44.2934 20.4625 41.6138 20.4625Z" fill="#121112"/>
<path d="M0.368164 11.8086L7.79639 19.2368L26.9266 0.111448L26.82 0L0.368164 11.8086Z" fill="#121112"/>
<path d="M19.1302 12.7583L0 31.8885L0.111448 32L26.5584 20.1914L19.1302 12.7583Z" fill="#121112"/>
<path d="M81.2257 15.2732C80.1548 14.5367 78.7399 14.2023 77.4897 13.9116C77.3928 13.8874 77.2911 13.868 77.1942 13.8437L77.0342 13.805C75.3868 13.4173 73.8313 13.0539 73.8313 11.8716C73.8313 11.3967 74.0785 11.0043 74.5243 10.6748C74.9749 10.3453 75.5903 10.166 76.259 10.166C77.514 10.166 78.8077 10.7281 79.6799 12.3368L82.1221 9.89462C80.9688 8.23744 78.7157 7.17627 76.196 7.17627C72.8041 7.17627 70.2456 9.22109 70.2456 11.9346C70.2456 13.5336 70.8707 14.7353 72.1499 15.5978C73.2596 16.344 74.6696 16.722 75.9149 17.0563L76.007 17.0806C76.1911 17.129 76.3704 17.1775 76.5449 17.2211C78.1342 17.633 79.3892 17.8655 79.3892 19.0769C79.3892 20.2059 78.2892 21.0297 76.7774 21.0297C75.4449 21.0297 74.2238 20.4095 73.434 19.3386C73.2111 19.0333 73.0173 18.699 72.8719 18.3453L69.6787 19.7698C69.8289 20.1236 70.4007 21.301 71.646 22.3574C73.0415 23.5397 74.7714 24.1405 76.7774 24.1405C80.4068 24.1405 83.0427 21.9843 83.0427 19.0188C83.0427 17.2792 82.4467 16.1163 81.2208 15.2683L81.2257 15.2732Z" fill="#121112"/>
</g>
<defs>
<clipPath id="clip0_2738_128027">
<rect width="129.575" height="32" fill="white"/>
</clipPath>
</defs>
</svg>
