<svg width="97" height="26" viewBox="0 0 97 26" fill="none" xmlns="http://www.w3.org/2000/svg">
<g clip-path="url(#clip0_3523_54307)">
<path d="M40.792 1.42273H35.629L29.2287 15.6774L28.5815 1.42273H23.1055L25.0228 24.6104H30.3497L37.0955 9.97925L39.2756 24.6104H44.7027L53.2954 1.42273H47.8088L42.826 15.7081L40.792 1.42273Z" fill="white"/>
<path d="M57.4306 24.6104L60.7331 1.42273H55.1503L51.8154 24.6104H57.4306Z" fill="white"/>
<path d="M71.4163 1.42282H63.9962L60.6934 24.6105H66.1733L67.9105 12.2517C67.6397 18.3623 70.5185 24.6105 77.5392 24.6105H78.0063L78.7333 19.5893H78.3977C77.3864 19.6394 76.3873 19.3537 75.5601 18.7779C74.7328 18.2021 74.1252 17.3694 73.8345 16.4131L73.7964 16.309L73.9049 16.2836C75.1928 16.0189 76.3902 15.4317 77.3812 14.5785C78.3723 13.7253 79.1237 12.6349 79.5634 11.4122C80.003 10.1896 80.1162 8.87595 79.8916 7.59776C79.667 6.31958 79.1122 5.11994 78.281 4.11437C77.3994 3.20658 76.3304 2.49638 75.1459 2.03198C73.9614 1.56758 72.6894 1.35982 71.4163 1.42282ZM74.33 9.25174C73.8574 12.3798 70.3667 12.2517 67.9105 12.2517L68.7717 6.21978C70.8136 6.21978 74.8012 6.13834 74.33 9.25174Z" fill="white"/>
<path d="M86.9488 19.4596L86.965 19.3435L89.5269 1.42139H84.0456L80.7432 24.609H93.635L94.3593 19.4596H86.9488Z" fill="white"/>
<path d="M12.8831 5.92599C14.2255 5.87078 15.5647 6.09045 16.8167 6.57116C18.0686 7.05187 19.2058 7.78317 20.1568 8.71895L20.8937 2.84461C18.5645 1.58347 15.9327 0.967148 13.2772 1.06095C7.1095 1.06095 3.97193 4.1837 4.04911 8.48533C4.10192 11.4692 6.9955 13.4251 9.93106 14.6053L11.3354 15.2008C14.1166 16.1567 14.7842 16.8923 14.6758 17.9897C14.554 19.2327 12.5891 19.8589 10.8044 19.8589C9.36502 19.8486 7.9442 19.538 6.63521 18.9475C5.32622 18.3571 4.15887 17.5002 3.20977 16.4331L2.32812 22.6946C4.73501 24.2834 7.59582 25.0682 10.4891 24.9335C16.3494 24.9335 20.7054 21.7627 20.6282 17.3609C20.5754 14.3677 19.2659 12.7122 15.6709 11.2062C15.6709 11.2062 13.9647 10.504 13.4163 10.3144C11.3054 9.57741 9.95158 8.96461 9.90825 7.92592C9.85951 6.76173 10.9875 5.92599 12.8831 5.92599Z" fill="white"/>
</g>
<defs>
<clipPath id="clip0_3523_54307">
<rect width="96.6875" height="26" fill="white"/>
</clipPath>
</defs>
</svg>
