<svg width="97" height="26" viewBox="0 0 97 26" fill="none" xmlns="http://www.w3.org/2000/svg">
<g clip-path="url(#clip0_3523_56063)">
<path d="M40.792 1.42285H35.629L29.2287 15.6775L28.5815 1.42285H23.1055L25.0228 24.6105H30.3497L37.0955 9.97937L39.2756 24.6105H44.7027L53.2954 1.42285H47.8088L42.826 15.7082L40.792 1.42285Z" fill="#EEEE77"/>
<path d="M57.4306 24.6105L60.7331 1.42285H55.1503L51.8154 24.6105H57.4306Z" fill="#EEEE77"/>
<path d="M71.4163 1.42313H63.9962L60.6934 24.6108H66.1733L67.9105 12.252C67.6397 18.3626 70.5185 24.6108 77.5392 24.6108H78.0063L78.7333 19.5896H78.3977C77.3864 19.6397 76.3873 19.354 75.5601 18.7782C74.7328 18.2024 74.1252 17.3697 73.8345 16.4134L73.7964 16.3093L73.9049 16.2839C75.1928 16.0192 76.3902 15.432 77.3812 14.5788C78.3723 13.7256 79.1237 12.6352 79.5634 11.4125C80.003 10.1899 80.1162 8.87626 79.8916 7.59807C79.667 6.31988 79.1122 5.12025 78.281 4.11467C77.3994 3.20689 76.3304 2.49668 75.1459 2.03228C73.9614 1.56788 72.6894 1.36012 71.4163 1.42313ZM74.33 9.25205C73.8574 12.3801 70.3667 12.252 67.9105 12.252L68.7717 6.22009C70.8136 6.22009 74.8012 6.13864 74.33 9.25205Z" fill="#EEEE77"/>
<path d="M86.9488 19.4591L86.965 19.343L89.5269 1.4209H84.0456L80.7432 24.6085H93.635L94.3593 19.4591H86.9488Z" fill="#EEEE77"/>
<path d="M12.8831 5.92611C14.2255 5.8709 15.5647 6.09057 16.8167 6.57128C18.0686 7.052 19.2058 7.78329 20.1568 8.71907L20.8937 2.84473C18.5645 1.5836 15.9327 0.96727 13.2772 1.06107C7.1095 1.06107 3.97193 4.18382 4.04911 8.48545C4.10192 11.4693 6.9955 13.4253 9.93106 14.6055L11.3354 15.2009C14.1166 16.1568 14.7842 16.8924 14.6758 17.9899C14.554 19.2328 12.5891 19.859 10.8044 19.859C9.36502 19.8487 7.9442 19.5381 6.63521 18.9477C5.32622 18.3572 4.15887 17.5003 3.20977 16.4332L2.32812 22.6947C4.73501 24.2835 7.59582 25.0683 10.4891 24.9336C16.3494 24.9336 20.7054 21.7628 20.6282 17.3611C20.5754 14.3678 19.2659 12.7123 15.6709 11.2063C15.6709 11.2063 13.9647 10.5041 13.4163 10.3145C11.3054 9.57754 9.95158 8.96473 9.90825 7.92604C9.85951 6.76185 10.9875 5.92611 12.8831 5.92611Z" fill="#EEEE77"/>
</g>
<defs>
<clipPath id="clip0_3523_56063">
<rect width="96.6875" height="26" fill="white"/>
</clipPath>
</defs>
</svg>
